<?xml version="1.0" encoding="UTF-8" standalone="no"?>
<svg
   xmlns:dc="http://purl.org/dc/elements/1.1/"
   xmlns:cc="http://creativecommons.org/ns#"
   xmlns:rdf="http://www.w3.org/1999/02/22-rdf-syntax-ns#"
   xmlns:svg="http://www.w3.org/2000/svg"
   xmlns="http://www.w3.org/2000/svg"
   xmlns:sodipodi="http://sodipodi.sourceforge.net/DTD/sodipodi-0.dtd"
   xmlns:inkscape="http://www.inkscape.org/namespaces/inkscape"
   width="21.5"
   height="21.5"
   version="1.1"
   id="svg32"
   sodipodi:docname="lernstick-read-clipboard.svg"
   inkscape:version="1.0.2 (e86c870879, 2021-01-15)">
  <metadata
     id="metadata38">
    <rdf:RDF>
      <cc:Work
         rdf:about="">
        <dc:format>image/svg+xml</dc:format>
        <dc:type
           rdf:resource="http://purl.org/dc/dcmitype/StillImage" />
        <dc:title></dc:title>
      </cc:Work>
    </rdf:RDF>
  </metadata>
  <defs
     id="defs36" />
  <sodipodi:namedview
     pagecolor="#ffffff"
     bordercolor="#666666"
     borderopacity="1"
     objecttolerance="10"
     gridtolerance="10"
     guidetolerance="10"
     inkscape:pageopacity="0"
     inkscape:pageshadow="2"
     inkscape:window-width="1920"
     inkscape:window-height="1016"
     id="namedview34"
     showgrid="false"
     inkscape:zoom="23.913066"
     inkscape:cx="4.795994"
     inkscape:cy="13.420991"
     inkscape:window-x="0"
     inkscape:window-y="27"
     inkscape:window-maximized="1"
     inkscape:current-layer="svg32"
     inkscape:document-rotation="0"
     fit-margin-top="0"
     fit-margin-left="0"
     fit-margin-right="0"
     fit-margin-bottom="0"
     lock-margins="false" />
  <g
     id="g861"
     transform="translate(1.75)">
    <g
       transform="translate(-3,-1)"
       id="g30">
      <rect
         style="opacity:0.2"
         width="18"
         height="20"
         x="3"
         y="2.5"
         rx="2"
         ry="2"
         id="rect2" />
      <rect
         width="18"
         height="20"
         x="3"
         y="2"
         rx="2"
         ry="2"
         style="fill:#e0995e"
         id="rect4" />
      <rect
         style="opacity:0.2"
         width="14"
         height="16"
         x="5"
         y="4.5"
         id="rect6" />
      <rect
         style="fill:#ffffff"
         width="14"
         height="16"
         x="5"
         y="4"
         id="rect8" />
      <g
         id="g20">
        <rect
           width="8"
           height="1"
           x="8"
           y="8"
           style="fill:#e0e0d1"
           id="rect10" />
        <rect
           width="8"
           height="1"
           x="8"
           y="10"
           style="fill:#e0e0d1"
           id="rect12" />
        <rect
           width="8"
           height="1"
           x="8"
           y="12"
           style="fill:#e0e0d1"
           id="rect14" />
        <rect
           width="8"
           height="1"
           x="8"
           y="14"
           style="fill:#e0e0d1"
           id="rect16" />
        <rect
           width="8"
           height="1"
           x="8"
           y="16"
           style="fill:#e0e0d1"
           id="rect18" />
      </g>
      <path
         style="opacity:0.2"
         d="M 8,1.5 V 4 c 0,0.831 0.669,1.5 1.5,1.5 h 5 C 15.331,5.5 16,4.831 16,4 V 1.5 Z"
         id="path22" />
      <path
         d="M 5,2 C 3.892,2 3,2.892 3,4 v 0.5 c 0,-1.108 0.892,-2 2,-2 h 14 c 1.108,0 2,0.892 2,2 V 4 C 21,2.892 20.108,2 19,2 Z"
         style="opacity:0.2;fill:#ffffff"
         id="path24" />
      <path
         d="M 8,1 V 3.5 C 8,4.331 8.669,5 9.5,5 h 5 C 15.331,5 16,4.331 16,3.5 V 1 Z"
         style="fill:#4f5d73"
         id="path26" />
      <path
         d="m 8,1 v 0.5 h 8 V 1 Z"
         style="opacity:0.1;fill:#ffffff"
         id="path28" />
    </g>
    <path
       style="color:#5294e2;fill:currentColor;stroke-width:0.811832"
       class="ColorScheme-Highlight"
       d="M 8.797042,7.3043808 5.549712,10.55171 H 3.1142145 v 4.870995 H 5.549712 l 3.24733,3.24733 z m 1.623664,0 v 1.2177487 c 1.883452,0.6007561 3.24733,2.3786685 3.24733,4.4650785 0,2.086409 -1.363878,3.864322 -3.24733,4.465078 v 1.217749 c 2.557273,-0.633229 4.465079,-2.922597 4.465079,-5.682827 0,-2.76023 -1.907806,-5.0495979 -4.465079,-5.6828272 z m 0,3.2473292 v 4.870995 c 0.860543,-0.470863 1.452369,-1.380115 1.452369,-2.435497 0,-1.055383 -0.583708,-1.964635 -1.452369,-2.435498 z"
       id="path5" />
  </g>
</svg>
