<?xml version="1.0" encoding="UTF-8" standalone="no"?>
<!-- Created with Inkscape (http://www.inkscape.org/) -->

<svg
   xmlns:dc="http://purl.org/dc/elements/1.1/"
   xmlns:cc="http://creativecommons.org/ns#"
   xmlns:rdf="http://www.w3.org/1999/02/22-rdf-syntax-ns#"
   xmlns:svg="http://www.w3.org/2000/svg"
   xmlns="http://www.w3.org/2000/svg"
   xmlns:sodipodi="http://sodipodi.sourceforge.net/DTD/sodipodi-0.dtd"
   xmlns:inkscape="http://www.inkscape.org/namespaces/inkscape"
   width="179.13"
   height="179.13"
   id="svg2605"
   sodipodi:version="0.32"
   inkscape:version="0.48.4 r9939"
   version="1.0"
   sodipodi:docname="student_question.svg"
   inkscape:output_extension="org.inkscape.output.svg.inkscape">
  <defs
     id="defs2607">
    <inkscape:perspective
       sodipodi:type="inkscape:persp3d"
       inkscape:vp_x="0 : 526.18109 : 1"
       inkscape:vp_y="0 : 1000 : 0"
       inkscape:vp_z="744.09448 : 526.18109 : 1"
       inkscape:persp3d-origin="372.04724 : 350.78739 : 1"
       id="perspective2613" />
  </defs>
  <sodipodi:namedview
     id="base"
     pagecolor="#ffffff"
     bordercolor="#666666"
     borderopacity="1.0"
     inkscape:pageopacity="0.0"
     inkscape:pageshadow="2"
     inkscape:zoom="1.979899"
     inkscape:cx="-17.270885"
     inkscape:cy="63.382109"
     inkscape:document-units="px"
     inkscape:current-layer="layer1"
     showgrid="false"
     showborder="true"
     inkscape:window-width="1920"
     inkscape:window-height="1057"
     inkscape:window-x="-3"
     inkscape:window-y="-3"
     fit-margin-top="0"
     fit-margin-left="0"
     fit-margin-right="0"
     fit-margin-bottom="0"
     borderlayer="false"
     inkscape:showpageshadow="true"
     inkscape:window-maximized="1" />
  <g
     inkscape:label="Calque 1"
     inkscape:groupmode="layer"
     id="layer1"
     transform="translate(-279.77479,-497.08301)">
    <g
       id="g3000"
       transform="translate(23.625502,0)">
      <path
         inkscape:connector-curvature="0"
         sodipodi:nodetypes="ccc"
         id="path3350"
         d="m 317.0913,531.19078 c -7.59079,2.696 -5.92921,11.06481 0.71428,10.71429 l -0.71428,-10.71429 z"
         style="fill:#ffffff;fill-opacity:1;stroke:#000000;stroke-width:2;stroke-linecap:round;stroke-linejoin:round;stroke-miterlimit:4;stroke-opacity:1;stroke-dasharray:none;stroke-dashoffset:1.5" />
      <path
         inkscape:connector-curvature="0"
         inkscape:transform-center-y="28.214286"
         inkscape:transform-center-x="84.285714"
         sodipodi:nodetypes="ccc"
         id="path3352"
         d="m 375.1338,539.34211 c 7.66969,-2.4626 6.26481,-10.87831 -0.38629,-10.73112 l 0.38629,10.73112 z"
         style="fill:#ffffff;fill-opacity:1;stroke:#000000;stroke-width:2;stroke-linecap:round;stroke-linejoin:round;stroke-miterlimit:4;stroke-opacity:1;stroke-dasharray:none;stroke-dashoffset:1.5" />
      <path
         inkscape:connector-curvature="0"
         sodipodi:nodetypes="cccscccc"
         id="path3354"
         d="m 318.16274,534.40508 -1.1735,22.20046 c -0.44217,6.60105 -0.88434,7.45484 -1.32651,10.65668 14.58094,3.58134 30.52776,2.30891 49.59402,0.47366 4.68485,-0.45095 7.90345,-1.77856 11.83456,-2.97366 l -1.1004,-10.56824 -2.47103,-27.2889 -55.35714,7.5 z"
         style="fill:#ffeeaa;fill-opacity:1;stroke:#000000;stroke-width:2;stroke-linecap:round;stroke-linejoin:round;stroke-miterlimit:4;stroke-opacity:1;stroke-dasharray:none;stroke-dashoffset:1.5" />
      <path
         inkscape:connector-curvature="0"
         sodipodi:nodetypes="ccccc"
         id="path3356"
         d="m 337.44845,567.26222 c -0.59524,4.28571 -3.33334,18.21429 -3.92858,22.5 6.90476,7.31282 18.80953,4.59903 25.71429,0.71428 -0.47619,-5.63702 -3.80953,-21.38174 -4.28572,-26.07142 l -17.49999,2.85714 z"
         style="fill:#ffffff;fill-opacity:1;stroke:#000000;stroke-width:2;stroke-linecap:round;stroke-linejoin:round;stroke-miterlimit:4;stroke-opacity:1;stroke-dasharray:none;stroke-dashoffset:1.5" />
      <path
         inkscape:connector-curvature="0"
         sodipodi:nodetypes="cccccc"
         id="path3358"
         d="m 375.66274,534.76223 c 0.40599,16.35346 -9.72809,29.91652 -26.04582,33.20446 -13.18068,1.80379 -24.363,-10.32284 -30.17036,-22.37255 -3.55638,-12.19261 -3.05443,-27.07987 7.29039,-34.58858 10.40311,-8.01363 25.79714,-8.94674 36.84646,-1.67983 9.03671,5.69229 12.31149,14.65723 12.07933,25.4365 z"
         style="fill:#ffffff;fill-opacity:1;stroke:#000000;stroke-width:2;stroke-linecap:round;stroke-linejoin:round;stroke-miterlimit:4;stroke-opacity:1;stroke-dasharray:none;stroke-dashoffset:1.5" />
      <path
         transform="matrix(0.1949723,0,0,0.2413793,287.07712,422.35707)"
         d="m 315.71427,452.36218 c 0,1.18347 -0.79949,2.14286 -1.78571,2.14286 -0.98622,0 -1.78572,-0.95939 -1.78572,-2.14286 0,-1.18346 0.7995,-2.14285 1.78572,-2.14285 0.98622,0 1.78571,0.95939 1.78571,2.14285 z"
         sodipodi:ry="2.1428571"
         sodipodi:rx="1.7857143"
         sodipodi:cy="452.36218"
         sodipodi:cx="313.92856"
         id="path3360"
         style="fill:#000000;fill-opacity:1;stroke:#000000;stroke-width:9.21920586;stroke-linecap:round;stroke-linejoin:round;stroke-miterlimit:4;stroke-opacity:1;stroke-dasharray:none;stroke-dashoffset:1.5"
         sodipodi:type="arc" />
      <path
         inkscape:connector-curvature="0"
         sodipodi:nodetypes="csccsc"
         id="path3362"
         d="m 317.55305,528.0811 c 7.18288,-1.34184 14.50654,-3.45162 21.23161,-6.70906 6.10636,-2.95775 16.25207,-6.56259 20.31644,-10.70427 6.13246,7.43897 7.32779,11.18544 16.2045,15.88016 -1.82244,-30.7031 -30.45542,-34.35129 -47.43659,-21.45408 -6.91671,5.25325 -10.39531,11.91523 -10.31596,22.98725 z"
         style="fill:#ffeeaa;fill-opacity:1;stroke:#000000;stroke-width:2;stroke-linecap:round;stroke-linejoin:round;stroke-miterlimit:4;stroke-opacity:1;stroke-dasharray:none;stroke-dashoffset:1.5" />
      <path
         inkscape:connector-curvature="0"
         sodipodi:nodetypes="cccccccccccc"
         id="path3364"
         d="m 401.48496,511.13552 c -1.75288,0.3018 -2.12218,0.62317 -2.77211,2.09477 l -2.32438,12.93649 -4.52833,-4.43838 c -1.59502,-0.4127 -2.3587,0.75621 -2.42952,1.82307 l 5.42241,11.42581 -0.44357,2.45104 10.50924,5.29955 5.73509,-14.06617 c -1.158,-3.35907 -4.59556,-5.13873 -8.79766,-5.20288 l 2.1252,-9.49984 c -0.0984,-2.09752 -1.01923,-2.45609 -2.49637,-2.82346 z"
         style="fill:#ffffff;fill-opacity:1;stroke:#000000;stroke-width:2;stroke-linecap:round;stroke-linejoin:round;stroke-miterlimit:4;stroke-opacity:1;stroke-dasharray:none;stroke-dashoffset:1.5" />
      <path
         inkscape:connector-curvature="0"
         sodipodi:nodetypes="cccccccccccccc"
         id="path3366"
         d="m 393.52434,536.56968 -8.6875,28.21875 c -5.84375,3.57577 -11.6875,7.14296 -17.53125,10.71875 l -8.79018,1.09375 c -7.10833,14.55564 -14.14688,19.11747 -23.91518,0 -4.6709,-0.35612 -10.42799,0.74587 -16.04464,2.28125 -7.41297,15.45268 -11.78857,32.18666 -16.09375,48.75 l 10,0 3.5625,0 60.2914,0 -1.40625,-32.5 c 8.11325,-3.84933 14.79754,-9.01282 21.9586,-15.71875 3.74121,-12.39125 7.60517,-24.76501 9.5,-37.15625 l -12.84375,-5.6875 z"
         style="fill:#5555ff;fill-opacity:1;stroke:#000000;stroke-width:1.99999988;stroke-linecap:round;stroke-linejoin:round;stroke-miterlimit:4;stroke-opacity:1;stroke-dasharray:none;stroke-dashoffset:1.5" />
      <path
         inkscape:connector-curvature="0"
         id="path3368"
         d="m 318.51988,579.76222 0,0 z"
         style="fill:#ffffff;fill-opacity:1;stroke:#000000;stroke-width:2;stroke-linecap:round;stroke-linejoin:round;stroke-miterlimit:4;stroke-opacity:1;stroke-dasharray:none;stroke-dashoffset:1.5" />
      <path
         inkscape:connector-curvature="0"
         sodipodi:nodetypes="cc"
         id="path3370"
         d="m 323.16273,599.40508 -3.21429,26.78571"
         style="fill:#000000;fill-opacity:1;stroke:#000000;stroke-width:2;stroke-linecap:round;stroke-linejoin:round;stroke-miterlimit:4;stroke-opacity:1;stroke-dasharray:none;stroke-dashoffset:1.5" />
      <path
         inkscape:connector-curvature="0"
         sodipodi:nodetypes="ccc"
         id="path3372"
         d="m 343.89817,553.61845 c 6.25666,8.62885 12.03205,6.6565 15.7235,-0.9265 -4.70593,1.40445 -10.0873,1.42629 -15.7235,0.9265 z"
         style="fill:#ffffff;fill-opacity:1;stroke:#000000;stroke-width:1.60000002;stroke-linecap:round;stroke-linejoin:round;stroke-miterlimit:4;stroke-opacity:1;stroke-dasharray:none;stroke-dashoffset:1.5" />
      <path
         inkscape:connector-curvature="0"
         sodipodi:nodetypes="ccccc"
         id="path3374"
         d="m 299.34621,616.95306 83.87781,-1.15969 17.79587,42.22791 -120.2451,0.80255 18.57142,-41.87077 z"
         style="fill:#ffcc00;fill-opacity:1;stroke:#000000;stroke-width:1.99999988;stroke-linecap:round;stroke-linejoin:round;stroke-miterlimit:4;stroke-opacity:1;stroke-dasharray:none;stroke-dashoffset:1.5" />
      <path
         transform="matrix(0.1949723,0,0,0.2413793,295.88393,421.99992)"
         d="m 315.71427,452.36218 c 0,1.18347 -0.79949,2.14286 -1.78571,2.14286 -0.98622,0 -1.78572,-0.95939 -1.78572,-2.14286 0,-1.18346 0.7995,-2.14285 1.78572,-2.14285 0.98622,0 1.78571,0.95939 1.78571,2.14285 z"
         sodipodi:ry="2.1428571"
         sodipodi:rx="1.7857143"
         sodipodi:cy="452.36218"
         sodipodi:cx="313.92856"
         id="path3376"
         style="fill:#000000;fill-opacity:1;stroke:#000000;stroke-width:9.21920586;stroke-linecap:round;stroke-linejoin:round;stroke-miterlimit:4;stroke-opacity:1;stroke-dasharray:none;stroke-dashoffset:1.5"
         sodipodi:type="arc" />
      <path
         inkscape:connector-curvature="0"
         sodipodi:nodetypes="cc"
         id="path3378"
         d="m 350.9586,540.68571 c 0.89461,1.61754 3.93579,1.75179 5.84055,-0.27421"
         style="fill:#ffffff;fill-opacity:1;stroke:#000000;stroke-width:1.5;stroke-linecap:round;stroke-linejoin:round;stroke-miterlimit:4;stroke-opacity:1;stroke-dasharray:none;stroke-dashoffset:1.5" />
      <path
         inkscape:connector-curvature="0"
         sodipodi:nodetypes="ccccc"
         id="path2525"
         d="m 281.05686,658.5319 0.75761,16.68111 118.694,-0.46174 0.5484,-17.14287 -120.00001,0.9235 z"
         style="fill:#d4aa00;fill-opacity:1;stroke:#000000;stroke-width:2;stroke-linecap:round;stroke-linejoin:round;stroke-miterlimit:4;stroke-opacity:1;stroke-dasharray:none;stroke-dashoffset:1.5" />
      <path
         inkscape:connector-curvature="0"
         sodipodi:nodetypes="ccccc"
         id="path2531"
         d="m 330.34258,623.42729 -8.57143,29.28572 42.14285,-0.71428 -6.42857,-29.28572 -27.14285,0.71428 z"
         style="fill:#ffffff;fill-opacity:1;stroke:#000000;stroke-width:2;stroke-linecap:round;stroke-linejoin:round;stroke-miterlimit:4;stroke-opacity:1;stroke-dasharray:none;stroke-dashoffset:1.5" />
    </g>
  </g>
  <metadata
     id="metadata24">
    <rdf:RDF>
      <cc:Work>
        <dc:format>image/svg+xml</dc:format>
        <dc:type
           rdf:resource="http://purl.org/dc/dcmitype/StillImage" />
        <cc:license
           rdf:resource="http://creativecommons.org/licenses/publicdomain/" />
        <dc:publisher>
          <cc:Agent
             rdf:about="http://openclipart.org/">
            <dc:title>Open Clip Art Library</dc:title>
          </cc:Agent>
        </dc:publisher>
        <dc:title />
        <dc:date>2010-04-23T01:32:24</dc:date>
        <dc:description />
        <dc:source>http://openclipart.org/detail/50287/Élève-posant-une-question-/-student-asking-a-question-by-lmproulx</dc:source>
        <dc:creator>
          <cc:Agent>
            <dc:title>lmproulx</dc:title>
          </cc:Agent>
        </dc:creator>
        <dc:subject>
          <rdf:Bag>
            <rdf:li>black and white</rdf:li>
            <rdf:li>clip art</rdf:li>
            <rdf:li>clipart</rdf:li>
            <rdf:li>colouring book</rdf:li>
            <rdf:li>girl</rdf:li>
            <rdf:li>outline</rdf:li>
            <rdf:li>people</rdf:li>
            <rdf:li>question</rdf:li>
            <rdf:li>school</rdf:li>
            <rdf:li>student</rdf:li>
          </rdf:Bag>
        </dc:subject>
      </cc:Work>
      <cc:License
         rdf:about="http://creativecommons.org/licenses/publicdomain/">
        <cc:permits
           rdf:resource="http://creativecommons.org/ns#Reproduction" />
        <cc:permits
           rdf:resource="http://creativecommons.org/ns#Distribution" />
        <cc:permits
           rdf:resource="http://creativecommons.org/ns#DerivativeWorks" />
      </cc:License>
    </rdf:RDF>
  </metadata>
</svg>
