<?xml version="1.0" encoding="UTF-8" standalone="no"?>
<svg
   xmlns:dc="http://purl.org/dc/elements/1.1/"
   xmlns:cc="http://creativecommons.org/ns#"
   xmlns:rdf="http://www.w3.org/1999/02/22-rdf-syntax-ns#"
   xmlns:svg="http://www.w3.org/2000/svg"
   xmlns="http://www.w3.org/2000/svg"
   xmlns:xlink="http://www.w3.org/1999/xlink"
   xmlns:sodipodi="http://sodipodi.sourceforge.net/DTD/sodipodi-0.dtd"
   xmlns:inkscape="http://www.inkscape.org/namespaces/inkscape"
   width="146.116"
   height="146.11586"
   viewBox="0 0 109.587 109.5869"
   id="svg2996"
   sodipodi:version="0.32"
   inkscape:version="0.92.1 r15371"
   sodipodi:docname="dlcopy-autoupgrade.svg"
   inkscape:output_extension="org.inkscape.output.svg.inkscape"
   version="1.0"
   style="display:inline"
   inkscape:export-filename="/home/lernstick_debian9/Programme/lernstick-desktop-file-diversions/dlcopy-autoupgrade/usr/share/icons/dlcopy-autoupgrade.png"
   inkscape:export-xdpi="336.39001"
   inkscape:export-ydpi="336.39001">
  <metadata
     id="metadata3021">
    <rdf:RDF>
      <cc:Work
         rdf:about="">
        <dc:format>image/svg+xml</dc:format>
        <dc:type
           rdf:resource="http://purl.org/dc/dcmitype/StillImage" />
        <dc:title></dc:title>
      </cc:Work>
    </rdf:RDF>
  </metadata>
  <defs
     id="defs3019">
    <radialGradient
       id="XMLID_54_"
       cx="-10.1414"
       cy="60.5"
       r="50.250099"
       gradientTransform="matrix(1,0,0,-1,36.9277,123)"
       gradientUnits="userSpaceOnUse">
      <stop
         offset="0"
         style="stop-color:#ECECF0"
         id="stop127" />
      <stop
         offset="0.549"
         style="stop-color:#E4E4E9"
         id="stop129" />
      <stop
         offset="0.7038"
         style="stop-color:#D6D7DC"
         id="stop131" />
      <stop
         offset="0.8379"
         style="stop-color:#C3C4CB"
         id="stop133" />
      <stop
         offset="0.9576"
         style="stop-color:#AAABB4"
         id="stop135" />
      <stop
         offset="0.9882"
         style="stop-color:#A2A4AD"
         id="stop137" />
    </radialGradient>
    <linearGradient
       id="XMLID_53_"
       gradientUnits="userSpaceOnUse"
       x1="-22.477301"
       y1="95.253899"
       x2="5.9488001"
       y2="11.4655"
       gradientTransform="matrix(1,0,0,-1,36.9277,123)">
      <stop
         offset="0"
         style="stop-color:#EEEEF2"
         id="stop118" />
      <stop
         offset="1"
         style="stop-color:#BABDC7"
         id="stop120" />
    </linearGradient>
    <linearGradient
       id="XMLID_52_"
       gradientUnits="userSpaceOnUse"
       x1="-18.0061"
       y1="91.855499"
       x2="1.8535"
       y2="11.4488"
       gradientTransform="matrix(1,0,0,-1,36.9277,123)">
      <stop
         offset="0.0056"
         style="stop-color:#D3D7CF"
         id="stop109" />
      <stop
         offset="0.1685"
         style="stop-color:#F2F2F0"
         id="stop111" />
      <stop
         offset="0.9101"
         style="stop-color:#888A85"
         id="stop113" />
    </linearGradient>
    <linearGradient
       id="XMLID_49_"
       gradientUnits="userSpaceOnUse"
       x1="-1.8631001"
       y1="106.4854"
       x2="-1.2273999"
       y2="108.8577"
       gradientTransform="matrix(1,0,0,-1,36.9277,123)">
      <stop
         offset="0"
         style="stop-color:#E3AD00"
         id="stop80" />
      <stop
         offset="1"
         style="stop-color:#FF7E00"
         id="stop82" />
    </linearGradient>
    <linearGradient
       id="XMLID_48_"
       gradientUnits="userSpaceOnUse"
       x1="-15.8728"
       y1="106.4863"
       x2="-15.2374"
       y2="108.8578"
       gradientTransform="matrix(1,0,0,-1,36.9277,123)">
      <stop
         offset="0"
         style="stop-color:#E3AD00"
         id="stop73" />
      <stop
         offset="1"
         style="stop-color:#FF7E00"
         id="stop75" />
    </linearGradient>
    <linearGradient
       id="XMLID_47_"
       gradientUnits="userSpaceOnUse"
       x1="0.69599998"
       y1="107.6729"
       x2="-4.9085002"
       y2="107.6729"
       gradientTransform="matrix(1,0,0,-1,36.9277,123)">
      <stop
         offset="0"
         style="stop-color:#555753"
         id="stop64" />
      <stop
         offset="1"
         style="stop-color:#2E3436"
         id="stop66" />
    </linearGradient>
    <linearGradient
       id="XMLID_46_"
       gradientUnits="userSpaceOnUse"
       x1="-12.1931"
       y1="107.6729"
       x2="-17.7971"
       y2="107.6729"
       gradientTransform="matrix(1,0,0,-1,36.9277,123)">
      <stop
         offset="0"
         style="stop-color:#555753"
         id="stop55" />
      <stop
         offset="1"
         style="stop-color:#2E3436"
         id="stop57" />
    </linearGradient>
    <linearGradient
       id="XMLID_45_"
       gradientUnits="userSpaceOnUse"
       x1="-20.159401"
       y1="106.5508"
       x2="3.6184001"
       y2="106.5508"
       gradientTransform="matrix(1,0,0,-1,36.9277,123)">
      <stop
         offset="0"
         style="stop-color:#ddc2f7;stop-opacity:1;"
         id="stop40" />
      <stop
         offset="0.2722"
         style="stop-color:#EEEEEE"
         id="stop42" />
      <stop
         offset="0.4705"
         style="stop-color:#EAEAEB"
         id="stop44" />
      <stop
         offset="0.6767"
         style="stop-color:#DDDEE1"
         id="stop46" />
      <stop
         offset="0.8858"
         style="stop-color:#C9CBD2"
         id="stop48" />
      <stop
         offset="1"
         style="stop-color:#BABDC7"
         id="stop50" />
    </linearGradient>
    <linearGradient
       id="XMLID_44_"
       gradientUnits="userSpaceOnUse"
       x1="-19.7185"
       y1="105.1201"
       x2="-10.7522"
       y2="106.2409"
       gradientTransform="matrix(1,0,0,-1,36.9277,123)">
      <stop
         offset="0"
         style="stop-color:#888888"
         id="stop33" />
      <stop
         offset="1"
         style="stop-color:#888A85"
         id="stop35" />
    </linearGradient>
    <radialGradient
       id="XMLID_43_"
       cx="-11.6638"
       cy="11.4248"
       r="8.9890003"
       gradientTransform="matrix(1,0,0,-1,36.9277,123)"
       gradientUnits="userSpaceOnUse">
      <stop
         offset="0"
         style="stop-color:#BBBBBB"
         id="stop22" />
      <stop
         offset="0.2271"
         style="stop-color:#A9A9A9"
         id="stop24" />
      <stop
         offset="0.6814"
         style="stop-color:#7A7A7A"
         id="stop26" />
      <stop
         offset="1"
         style="stop-color:#555555"
         id="stop28" />
    </radialGradient>
    <radialGradient
       inkscape:collect="always"
       xlink:href="#XMLID_43_"
       id="radialGradient3935"
       gradientUnits="userSpaceOnUse"
       gradientTransform="matrix(0.643039,0,0,-0.8,307.17481,229.54246)"
       cx="-11.6638"
       cy="11.4248"
       r="8.9890003" />
    <linearGradient
       inkscape:collect="always"
       xlink:href="#XMLID_44_"
       id="linearGradient3937"
       gradientUnits="userSpaceOnUse"
       gradientTransform="matrix(0.7892089,0,0,-0.8,307.60798,229.54246)"
       x1="-19.7185"
       y1="105.1201"
       x2="-10.7522"
       y2="106.2409" />
    <linearGradient
       inkscape:collect="always"
       xlink:href="#XMLID_45_"
       id="linearGradient3939"
       gradientUnits="userSpaceOnUse"
       gradientTransform="matrix(0.7720124,0,0,-0.8,307.68739,229.54246)"
       x1="-20.159401"
       y1="106.5508"
       x2="3.6184001"
       y2="106.5508" />
    <linearGradient
       inkscape:collect="always"
       xlink:href="#XMLID_46_"
       id="linearGradient3941"
       gradientUnits="userSpaceOnUse"
       gradientTransform="matrix(0.7720124,0,0,-0.8,307.68739,229.54246)"
       x1="-12.1931"
       y1="107.6729"
       x2="-17.7971"
       y2="107.6729" />
    <linearGradient
       inkscape:collect="always"
       xlink:href="#XMLID_47_"
       id="linearGradient3943"
       gradientUnits="userSpaceOnUse"
       gradientTransform="matrix(0.7720124,0,0,-0.8,307.68739,229.54246)"
       x1="0.69599998"
       y1="107.6729"
       x2="-4.9085002"
       y2="107.6729" />
    <linearGradient
       inkscape:collect="always"
       xlink:href="#XMLID_48_"
       id="linearGradient3945"
       gradientUnits="userSpaceOnUse"
       gradientTransform="matrix(0.7720124,0,0,-0.8,307.68739,229.54246)"
       x1="-15.8728"
       y1="106.4863"
       x2="-15.2374"
       y2="108.8578" />
    <linearGradient
       inkscape:collect="always"
       xlink:href="#XMLID_49_"
       id="linearGradient3947"
       gradientUnits="userSpaceOnUse"
       gradientTransform="matrix(0.7720124,0,0,-0.8,307.68739,229.54246)"
       x1="-1.8631001"
       y1="106.4854"
       x2="-1.2273999"
       y2="108.8577" />
    <linearGradient
       inkscape:collect="always"
       xlink:href="#XMLID_52_"
       id="linearGradient3949"
       gradientUnits="userSpaceOnUse"
       gradientTransform="matrix(0.643039,0,0,-0.8,307.17481,229.54246)"
       x1="-18.0061"
       y1="91.855499"
       x2="1.8535"
       y2="11.4488" />
    <linearGradient
       inkscape:collect="always"
       xlink:href="#XMLID_53_"
       id="linearGradient3951"
       gradientUnits="userSpaceOnUse"
       gradientTransform="matrix(0.643039,0,0,-0.8,307.17481,229.54246)"
       x1="-22.477301"
       y1="95.253899"
       x2="5.9488001"
       y2="11.4655" />
    <radialGradient
       inkscape:collect="always"
       xlink:href="#XMLID_54_"
       id="radialGradient3953"
       gradientUnits="userSpaceOnUse"
       gradientTransform="matrix(0.643039,0,0,-0.8,307.17481,229.54246)"
       cx="-10.1414"
       cy="60.5"
       r="50.250099" />
    <linearGradient
       id="linearGradient3637">
      <stop
         id="stop3639"
         style="stop-color:#f0f0f0;stop-opacity:1"
         offset="0" />
      <stop
         id="stop3641"
         style="stop-color:#aaaaaa;stop-opacity:1"
         offset="1" />
    </linearGradient>
    <linearGradient
       x1="24.000017"
       y1="44.500015"
       x2="24.000017"
       y2="1.4998806"
       id="linearGradient3053"
       xlink:href="#linearGradient3637"
       gradientUnits="userSpaceOnUse"
       gradientTransform="matrix(0.94185751,0,0,-0.94185751,68.459944,213.59873)" />
  </defs>
  <sodipodi:namedview
     inkscape:window-height="1531"
     inkscape:window-width="2560"
     inkscape:pageshadow="2"
     inkscape:pageopacity="0"
     guidetolerance="10.0"
     gridtolerance="10.0"
     objecttolerance="10.0"
     borderopacity="1.0"
     bordercolor="#666666"
     pagecolor="#ffffff"
     id="base"
     showgrid="false"
     inkscape:zoom="4.5056348"
     inkscape:cx="29.048196"
     inkscape:cy="41.430415"
     inkscape:window-x="0"
     inkscape:window-y="0"
     inkscape:current-layer="layer4"
     inkscape:window-maximized="1"
     fit-margin-top="0"
     fit-margin-left="0"
     fit-margin-right="0"
     fit-margin-bottom="0"
     inkscape:pagecheckerboard="false" />
  <g
     inkscape:groupmode="layer"
     id="layer4"
     inkscape:label="stick"
     style="display:inline;opacity:1"
     transform="translate(-88.401525,-44.173717)">
    <g
       id="g3909"
       transform="matrix(-0.8135034,0.83767522,-0.76711352,-0.74604888,513.55373,-8.3554007)"
       inkscape:export-filename="/home/ronny/Dokumente/Lernstick/lernstick_usb.png"
       inkscape:export-xdpi="120.99"
       inkscape:export-ydpi="120.99">
      <path
         style="opacity:0.25;fill:#323232"
         id="path11"
         d="m 314.10825,160.69046 v -4.8288 c 0,-0.4952 -0.32217,-0.8968 -0.72085,-0.8968 h -3.24285 v -20.6224 H 293.5683 v 20.6224 h -4.68454 c -0.39869,0 -0.72085,0.4016 -0.72085,0.8968 v 4.8288 c -1.35103,1.172 -2.1619,2.6264 -2.1619,4.208 v 19.832 5.8424 6.9992 h 0.003 c 0.0257,4.512 0.81216,8.7288 2.15868,12.3408 v 2.436 c 0,6.4272 4.2029,11.656 9.36843,11.656 h 7.20783 c 5.16617,0 9.36908,-5.2288 9.36908,-11.656 v -2.436 c 1.34652,-3.612 2.13231,-7.8288 2.15868,-12.3408 h 0.003 v -6.9992 -5.8424 -19.832 c 0,-1.5816 -0.81022,-3.036 -2.16189,-4.208 z"
         enable-background="new    "
         inkscape:connector-curvature="0" />
      <path
         sodipodi:nodetypes="ccccccccccccccscccccccccc"
         style="opacity:0.05;fill:#323232"
         id="path13"
         d="m 290.44217,131.08327 c -1.59328,0 -2.89031,1.43608 -2.89031,3.20197 0,0 0,15.96983 0,17.43314 -0.84903,0 0.82634,0 0.82634,0 -2.04056,0 -3.70032,1.83873 -3.70032,4.09932 0,0 0,2.93461 0,3.46373 -1.57377,1.66823 -2.4293,3.58461 -2.4293,5.57864 V 197.553 c 0.0325,4.48516 0.87721,8.94631 2.4293,12.93197 0,0.24575 0,1.85234 0,1.85234 0,8.19625 6.01979,14.86515 13.41752,14.86515 h 4.89936 c 7.39846,0 13.41824,-6.6689 13.41824,-14.86515 0,0 0,-1.60819 0,-1.85234 1.55354,-3.98966 2.39678,-8.44761 2.42569,-12.91036 0,-0.006 0.004,-7.02272 0.004,-7.02272 v -25.69182 c 0,-1.99403 -0.85625,-3.91041 -2.4293,-5.57944 0,-0.52912 0,-3.46293 0,-3.46293 0,-2.26059 -1.65976,-4.09932 -3.70031,-4.09932 0,0 -0.37647,0 -0.75365,0 0,-1.46331 0,-17.43314 0,-17.43314 0,-1.76589 -1.2963,-3.20197 -2.89031,-3.20197 h -18.62656 v 0 z"
         enable-background="new    "
         inkscape:connector-curvature="0" />
      <path
         sodipodi:nodetypes="ccccccccccccccscccccccccc"
         style="opacity:0.1;fill:#323232"
         id="path15"
         d="m 290.89819,131.85367 c -1.17888,0 -2.13824,1.07781 -2.13824,2.40226 0,0 0,16.77015 0,18.23953 -0.93726,0 0.14588,0 0.14588,0 -1.61936,0 -2.93723,1.48059 -2.93723,3.29989 0,0 0,3.21903 0,3.77955 -1.55165,1.55827 -2.39626,3.36556 -2.39626,5.26575 v 32.70351 c 0.0321,4.46019 0.86528,8.87393 2.39626,12.79361 0,0.25144 0,1.99708 0,1.99708 0,7.75768 5.61787,14.06921 12.52225,14.06921 h 4.78919 c 6.90509,0 12.52296,-6.31153 12.52296,-14.06921 0,0 0,-1.74564 0,-1.99708 1.5317,-3.92208 2.36419,-8.33262 2.3927,-12.7768 0,-0.006 0.004,-7.02099 0.004,-7.02099 v -25.69933 c 0,-1.90019 -0.84603,-3.70748 -2.39626,-5.26655 0,-0.56132 0,-3.77955 0,-3.77955 0,-1.8193 -1.31786,-3.2999 -2.93723,-3.2999 0,0 -0.81395,0 -1.45614,0 0,-1.46938 0,-18.23952 0,-18.23952 0,-1.32445 -0.95936,-2.40226 -2.13824,-2.40226 l -18.3732,8e-4 v 0 z"
         enable-background="new    "
         inkscape:connector-curvature="0" />
      <path
         sodipodi:nodetypes="ccccccccccccccscccccccccc"
         style="opacity:0.15;fill:#323232"
         id="path17"
         d="m 291.06063,132.59448 c -0.78342,0 -1.42053,0.71874 -1.42053,1.60255 0,0 0,17.57757 0,19.05271 -1.0043,0 -0.55373,0 -0.55373,0 -1.22236,0 -2.21672,1.12179 -2.21672,2.50078 0,0 0,3.5184 0,4.11375 -1.54482,1.4463 -2.3879,3.13939 -2.3879,4.93745 v 32.72487 c 0.032,4.43666 0.86226,8.8028 2.3879,12.65694 0,0.2572 0,2.1434 0,2.1434 0,7.32126 5.27937,13.27713 11.76832,13.27713 h 4.76132 c 6.49037,0 11.76903,-5.95748 11.76903,-13.27713 0,0 0,-1.8862 0,-2.1434 1.52636,-3.85654 2.35594,-8.22189 2.38435,-12.64572 0,-0.005 0.004,-7.02077 0.004,-7.02077 v -25.71532 c 0,-1.79806 -0.84379,-3.49195 -2.3879,-4.93825 0,-0.59535 0,-4.11375 0,-4.11375 0,-1.37899 -0.99436,-2.50078 -2.21672,-2.50078 0,0 -1.3566,0 -2.16133,0 0,-1.47595 0,-19.05271 0,-19.05271 0,-0.88381 -0.63639,-1.60255 -1.42052,-1.60255 l -18.30912,8e-4 v 0 z"
         enable-background="new    "
         inkscape:connector-curvature="0" />
      <path
         style="opacity:0.2;fill:#323232"
         id="path19"
         d="m 293.5683,133.54246 c -0.35496,0 -0.64304,0.3584 -0.64304,0.8 0,0 0,18.3448 0,19.8224 -0.95749,0 -4.0415,0 -4.0415,0 -0.75172,0 -1.36389,0.7608 -1.36389,1.6968 0,0 0,3.8248 0,4.4576 -1.39797,1.328 -2.1619,2.8976 -2.1619,4.5792 v 32.6728 c 0.0283,4.4 0.77937,8.7088 2.1619,12.4896 0,0.2624 0,2.2856 0,2.2856 0,6.8688 4.49098,12.456 10.01147,12.456 h 7.20783 c 5.52113,0 10.01212,-5.5872 10.01212,-12.456 0,0 0,-2.0232 0,-2.2856 1.38189,-3.7816 2.13296,-8.088 2.15868,-12.484 l 0.003,-7.0048 v -25.6736 c 0,-1.6824 -0.76393,-3.2512 -2.16189,-4.58 0,-0.6328 0,-4.4576 0,-4.4576 0,-0.9352 -0.61153,-1.6968 -1.36389,-1.6968 0,0 -1.7735,0 -2.59981,0 0,-1.4784 0,-19.8224 0,-19.8224 0,-0.4416 -0.28743,-0.8 -0.64304,-0.8 l -16.57625,8e-4 v 0 z"
         enable-background="new    "
         inkscape:connector-curvature="0" />
      <path
         style="fill:url(#radialGradient3935)"
         id="path30"
         d="m 301.13558,213.79046 c -1.99021,0 -3.60359,2.8104 -3.60359,6.2768 0,3.4664 1.61338,6.2752 3.60359,6.2752 1.99085,0 3.60359,-2.8104 3.60359,-6.2768 0,-3.4664 -1.61274,-6.2752 -3.60359,-6.2752 z m 0,11.6552 c -1.56259,0 -2.88275,-2.464 -2.88275,-5.38 0,-2.9168 1.32081,-5.3808 2.88275,-5.3808 1.56194,0 2.8821,2.464 2.8821,5.3808 6.4e-4,2.916 -1.31952,5.38 -2.8821,5.38 z"
         inkscape:connector-curvature="0" />
      <rect
         style="fill:url(#linearGradient3937)"
         id="rect37"
         height="21.5184"
         width="20.344225"
         y="133.54247"
         x="290.90857" />
      <path
         style="fill:url(#linearGradient3939)"
         id="path52"
         d="m 292.12386,134.34246 c 0,1.4256 0,18.4928 0,19.9184 1.36878,0 16.98813,0 18.35691,0 0,-1.4256 0,-18.4928 0,-19.9184 -1.36955,0 -16.98813,0 -18.35691,0 z"
         inkscape:connector-curvature="0" />
      <rect
         style="fill:url(#linearGradient3941)"
         id="rect59"
         height="3.5863998"
         width="4.3263578"
         y="141.61206"
         x="293.94812" />
      <path
         style="fill:#2e3436"
         id="path61"
         d="m 294.81278,142.50886 c 0,0.672 0,1.1208 0,1.7928 0.83068,0 1.76482,0 2.5955,0 0,-0.672 0,-1.1208 0,-1.7928 -0.83068,0 -1.76482,0 -2.5955,0 z"
         inkscape:connector-curvature="0" />
      <rect
         style="fill:url(#linearGradient3943)"
         id="rect68"
         height="3.5863998"
         width="4.3263578"
         y="141.61206"
         x="303.89859" />
      <path
         style="fill:#2e3436"
         id="path70"
         d="m 304.76324,142.50886 c 0,0.672 0,1.1208 0,1.7928 0.83069,0 1.7656,0 2.59551,0 0,-0.672 0,-1.1208 0,-1.7928 -0.82991,0 -1.76482,0 -2.59551,0 z"
         inkscape:connector-curvature="0" />
      <rect
         style="fill:url(#linearGradient3945)"
         id="rect77"
         height="1.7927999"
         width="0.86465389"
         y="142.50887"
         x="295.24588" />
      <rect
         style="fill:url(#linearGradient3947)"
         id="rect84"
         height="1.7927999"
         width="0.86542594"
         y="142.50887"
         x="306.06177" />
      <rect
         style="fill:#dddddd"
         id="rect86"
         height="20.7192"
         width="0.86542594"
         y="134.34245"
         x="292.21729" />
      <rect
         style="fill:#eeeeee"
         id="rect88"
         height="20.6224"
         width="0.86542594"
         y="134.43925"
         x="309.7381" />
      <path
         style="fill:#dccf2c;fill-opacity:1"
         id="path90"
         d="m 305.58734,157.10006 h -8.90352 c -5.89924,0 -10.68281,3.1336 -10.68281,6.9984 v 19.832 5.8424 6.9992 h 0.003 c 0.0765,13.3816 6.82071,24.1912 15.13135,24.1912 8.31063,0 15.05418,-10.8112 15.13135,-24.1912 h 0.003 v -6.9992 -5.8424 -19.832 c 0,-3.8648 -4.78356,-6.9984 -10.6828,-6.9984 z"
         inkscape:connector-curvature="0" />
      <path
         style="fill:#f0f012;fill-opacity:1"
         id="path99"
         d="m 296.68382,157.90006 c -5.44204,0 -10.03977,2.8384 -10.03977,6.1984 v 32.6728 c 0.0772,12.8952 6.577,23.3912 14.49153,23.3912 7.91452,0 14.41372,-10.496 14.48831,-23.3968 l 0.003,-6.9936 v -25.6736 c 0,-3.36 -4.59772,-6.1992 -10.03976,-6.1992 l -8.90352,8e-4 v 0 z"
         inkscape:connector-curvature="0" />
      <path
         style="fill:#faec32;fill-opacity:1"
         id="path106"
         d="m 296.68382,159.78966 c -5.12245,0 -8.52091,2.5936 -8.52091,4.3088 v 32.6728 c 0.0714,11.8496 5.89088,21.5016 12.97267,21.5016 7.08307,0 12.90065,-9.6544 12.96881,-21.52 0,0.0128 0.004,-6.9816 0.004,-6.9816 v -25.6728 c 0,-1.716 -3.39846,-4.3088 -8.52091,-4.3088 h -8.90352 v 0 z"
         inkscape:connector-curvature="0" />
      <path
         style="fill:url(#linearGradient3949)"
         id="path115"
         d="m 304.73917,154.16486 h -15.85541 c -0.39869,0 -0.72085,0.4016 -0.72085,0.8968 v 6.6 c 0,0.168 0.0379,0.3328 0.10867,0.4752 3.09045,6.1552 4.93533,16.7504 4.93533,28.3408 0,11.5904 -1.84488,10.5288 -4.93533,16.684 -0.0707,0.1432 -0.10867,0.308 -0.10867,0.476 v 3.9104 c 0,6.4272 4.2029,11.656 9.36843,11.656 h 7.20783 c 5.16617,0 9.36908,-5.2288 9.36908,-11.656 v -3.9104 c 0,-0.168 -0.0379,-0.3328 -0.10996,-0.476 -3.09045,-6.1552 -4.93533,-5.0936 -4.93533,-16.684 0,-11.5904 1.84488,-22.1848 4.93533,-28.3408 0.072,-0.1424 0.10996,-0.3072 0.10996,-0.4752 v -6.6 c 0,-0.4952 -0.32217,-0.8968 -0.72085,-0.8968 z"
         inkscape:connector-curvature="0" />
      <path
         style="fill:url(#linearGradient3951)"
         id="path122"
         d="m 288.88376,154.96486 c -0.0424,0 -0.0778,0.0432 -0.0778,0.0968 v 6.6 c 3.16311,6.3288 5.04464,17.0816 5.04464,28.816 0,8.9312 -1.11953,10.6768 -2.9747,13.5688 -0.60639,0.9456 -1.29444,2.0168 -2.05837,3.54 l -0.0116,3.9616 c 0,5.9856 3.91418,10.856 8.72539,10.856 h 7.20783 c 4.81122,0 8.72604,-4.8704 8.72604,-10.856 v -3.9104 c -0.77615,-1.5736 -1.46356,-2.6456 -2.07059,-3.5912 -1.85581,-2.892 -2.9747,-4.6376 -2.9747,-13.5688 0,-11.7336 1.88154,-22.4872 5.03243,-28.7648 l 0.0129,-6.6512 c 0,-0.0528 -0.0354,-0.0968 -0.0778,-0.0968 h -24.50364 v 0 z"
         inkscape:connector-curvature="0" />
      <path
         style="fill:url(#radialGradient3953)"
         id="path139"
         d="m 289.44899,155.76486 c 0,1.0848 0,5.36 0,5.696 3.1586,6.4672 5.04464,17.276 5.04464,29.0168 0,9.2112 -1.23914,11.1432 -3.11488,14.068 -0.56845,0.8848 -1.21342,1.9072 -1.91883,3.2872 -0.001,0.4296 -0.0109,3.7168 -0.0109,3.7168 0,5.5432 3.62609,10.0528 8.08235,10.0528 h 7.20783 c 4.45819,0 8.083,-4.512 8.083,-10.056 0,0 0,-3.24 0,-3.6672 -0.71377,-1.42 -1.35939,-2.4456 -1.92719,-3.3312 -1.87896,-2.9288 -3.1181,-4.8608 -3.1181,-14.072 0,-11.7512 1.88218,-22.5408 5.03307,-28.9664 6.4e-4,-0.336 0.009,-4.6568 0.0109,-5.7464 -1.05522,0.002 -22.31795,0.002 -23.37189,0.002 z"
         inkscape:connector-curvature="0" />
      <text
         transform="rotate(-90.067355)"
         id="text3521"
         y="305.3598"
         x="-210.42859"
         style="font-style:normal;font-weight:normal;line-height:0%;font-family:'Bitstream Vera Sans';fill:#000000;fill-opacity:1;stroke:none"
         xml:space="preserve"><tspan
           style="font-style:normal;font-variant:normal;font-weight:normal;font-stretch:normal;font-size:12.79999924px;line-height:1.25;font-family:Arial;-inkscape-font-specification:Arial"
           y="305.3598"
           x="-210.42859"
           id="tspan3523"
           sodipodi:role="line">lernstick</tspan></text>
    </g>
    <g
       id="g444"
       transform="matrix(1.2555606,0,0,1.2555574,56.25471,-170.35804)">
      <path
         inkscape:connector-curvature="0"
         d="m 88.25204,170.86575 c -1.683314,0 -2.976562,1.4258 -2.976562,3.04687 v 1.80469 c -0.731451,0.23822 -1.452771,0.53277 -2.15625,0.86719 l -1.265625,-1.26563 c -3.1e-5,-3e-5 -0.02187,9e-4 -0.02344,0 -0.01668,-0.01 -0.09431,-0.0636 -0.1875,-0.11718 -1.125144,-0.96062 -2.882516,-1.07843 -4.007812,0.0469 l -4.007813,4.00781 c -1.177861,1.17777 -1.019389,3.05939 0.07031,4.17188 l 1.265625,1.3125 c -0.334421,0.70348 -0.628971,1.4248 -0.867188,2.15625 h -1.804687 c -1.621074,0 -3.046875,1.29325 -3.046875,2.97656 v 5.625 c 0,1.68331 1.425801,2.97656 3.046875,2.97656 h 1.804687 c 0.238215,0.73145 0.532764,1.45277 0.867188,2.15625 l -1.265625,1.3125 c -1.089654,1.11251 -1.248084,2.9941 -0.07031,4.17188 l 4.007813,4.00781 c 0.547803,0.54778 1.300903,0.87406 2.109375,0.86719 0.802454,-0.007 1.387036,-0.38877 1.828125,-0.77344 0.01701,-0.0148 0.05386,-0.009 0.07031,-0.0234 a 0.84547869,0.84547869 0 0 0 0.164063,-0.14062 0.84547869,0.84547869 0 0 0 0.02344,0 l 1.289063,-1.26563 c 0.703479,0.33443 1.424798,0.62898 2.15625,0.86719 v 1.80469 c 0,1.62107 1.293248,3.04687 2.976562,3.04687 h 5.625001 c 1.683306,0 2.976562,-1.42579 2.976562,-3.04687 v -1.80469 c 0.731451,-0.23821 1.45277,-0.53276 2.15625,-0.86719 l 1.312498,1.26563 c 1.11249,1.08956 2.99407,1.24808 4.17188,0.0703 l 4.00781,-4.00781 c 1.08486,-1.08473 0.98212,-2.73994 0.11719,-3.86719 a 0.84547869,0.84547869 0 0 0 -0.0234,-0.0469 c -0.004,-0.005 0.004,-0.0183 0,-0.0234 a 0.84547869,0.84547869 0 0 0 -0.16406,-0.23438 0.84547869,0.84547869 0 0 0 0,-0.0234 l -1.26563,-1.28907 c 0.33442,-0.70348 0.62897,-1.4248 0.86719,-2.15625 h 1.80469 c 1.62107,0 3.04687,-1.29324 3.04687,-2.97656 v -5.625 c 0,-1.68331 -1.42577,-2.9766 -3.04687,-2.97656 h -1.80469 c -0.23822,-0.73146 -0.53276,-1.45277 -0.86719,-2.15625 l 1.26563,-1.28906 a 0.84547869,0.84547869 0 0 0 0,-0.0234 c 0.0157,-0.016 0.0316,-0.0306 0.0469,-0.0469 a 0.84547869,0.84547869 0 0 0 0.0937,-0.14062 0.84547869,0.84547869 0 0 0 0.0703,-0.14063 c 0.84534,-1.12689 0.93564,-2.76747 -0.14063,-3.84375 l -4.00781,-4.00781 c -1.1253,-1.12535 -2.88268,-1.0075 -4.00781,-0.0469 -0.0932,0.0536 -0.17082,0.10746 -0.1875,0.11718 -0.002,9e-4 -0.0234,-3e-5 -0.0234,0 l -1.265628,1.26563 c -0.703479,-0.33442 -1.424798,-0.62897 -2.15625,-0.86719 v -1.80469 c 0,-1.62107 -1.29325,-3.04687 -2.976562,-3.04687 z m 2.8125,12.82031 7.429688,7.42969 h -1.429687 c 0.0042,4e-5 -0.144805,3.7e-4 -0.140625,0 0.0042,-3.7e-4 -0.168185,0.0242 -0.164063,0.0234 0.0041,-7.5e-4 -0.144649,0.0481 -0.140625,0.0469 0.004,-0.001 -0.167948,0.0485 -0.164062,0.0469 0.0039,-0.002 -0.144334,0.0723 -0.140625,0.0703 0.0037,-0.002 -0.120684,0.0726 -0.117188,0.0703 0.0035,-0.002 -0.143872,0.0964 -0.140625,0.0937 0.0032,-0.003 -0.120154,0.0967 -0.117187,0.0937 0.003,-0.003 -0.09641,0.12044 -0.09375,0.11719 0.0026,-0.003 -0.09607,0.14412 -0.09375,0.14062 0.0023,-0.004 -0.07228,0.1209 -0.07031,0.11719 0.0019,-0.004 -0.0719,0.14451 -0.07031,0.14063 0.0016,-0.004 -0.04807,0.16808 -0.04687,0.16406 0.0012,-0.004 -0.04766,0.14474 -0.04687,0.14062 7.5e-4,-0.004 -0.02381,0.16825 -0.02344,0.16407 3.72e-4,-0.004 4.5e-5,0.14482 0,0.14062 v 7.42969 h -8.859375 v -7.42969 c -4.5e-5,0.004 -3.72e-4,-0.1448 0,-0.14062 3.72e-4,0.004 -0.02423,-0.16819 -0.02344,-0.16407 7.5e-4,0.004 -0.04807,-0.14465 -0.04687,-0.14062 0.0012,0.004 -0.04846,-0.16795 -0.04687,-0.16406 0.0016,0.004 -0.07228,-0.14434 -0.07031,-0.14063 0.0019,0.004 -0.07264,-0.12068 -0.07031,-0.11719 0.0023,0.004 -0.09641,-0.14387 -0.09375,-0.14062 0.0026,0.003 -0.09672,-0.12016 -0.09375,-0.11719 0.003,0.003 -0.120435,-0.0964 -0.117187,-0.0937 0.0032,0.003 -0.144121,-0.0961 -0.140625,-0.0937 0.0035,0.002 -0.120896,-0.0723 -0.117188,-0.0703 0.0037,0.002 -0.14451,-0.0719 -0.140625,-0.0703 0.0039,0.002 -0.168086,-0.0481 -0.164062,-0.0469 0.004,0.001 -0.144747,-0.0477 -0.140625,-0.0469 0.0041,7.5e-4 -0.168242,-0.0238 -0.164063,-0.0234 0.0042,3.7e-4 -0.144821,4e-5 -0.140625,0 h -1.429687 z"
         id="path3857"
         style="display:block;overflow:visible;visibility:visible;opacity:0.1;fill:#000000;fill-opacity:1;fill-rule:nonzero;stroke:none;stroke-width:0.75;marker:none;enable-background:accumulate" />
      <path
         inkscape:connector-curvature="0"
         d="m 88.25204,171.7095 c -1.197418,0 -2.132812,1.03233 -2.132812,2.20312 v 2.39063 c -1.099971,0.32144 -2.169815,0.73069 -3.1875,1.26562 l -1.6875,-1.64062 c -0.0053,-0.005 -0.01808,0.005 -0.02344,0 -0.803082,-0.78663 -2.150145,-0.89674 -2.976562,-0.0703 l -4.007813,4.00781 c -0.826485,0.82642 -0.716307,2.17349 0.07031,2.97656 l 1.640625,1.71094 c -0.534931,1.01768 -0.944177,2.08753 -1.265625,3.1875 h -2.390625 c -1.170792,0 -2.203125,0.93539 -2.203125,2.13281 v 5.625 c 0,1.19742 1.032333,2.13281 2.203125,2.13281 h 2.390625 c 0.321446,1.09997 0.730687,2.16982 1.265625,3.1875 l -1.640625,1.71094 c -0.786583,0.80308 -0.896735,2.15014 -0.07031,2.97656 l 4.007813,4.00782 c 0.395093,0.39507 0.940379,0.63756 1.5,0.63281 0.621459,-0.005 1.117458,-0.34783 1.476562,-0.70313 h 0.02344 l 1.6875,-1.64062 c 1.017684,0.53493 2.087527,0.94418 3.1875,1.26562 v 2.39063 c 0,1.17079 0.935394,2.20312 2.132812,2.20312 h 5.625001 c 1.197411,0 2.132812,-1.03233 2.132812,-2.20312 v -2.39063 c 1.099972,-0.32144 2.169815,-0.73069 3.1875,-1.26562 l 1.710937,1.64062 c 0.80307,0.78652 2.15012,0.89673 2.97656,0.0703 l 4.00782,-4.00782 c 0.82652,-0.82642 0.71629,-2.1735 -0.0703,-2.97656 v -0.0234 l -1.64062,-1.6875 c 0.53493,-1.01768 0.94418,-2.08753 1.26562,-3.1875 h 2.39063 c 1.17079,0 2.20312,-0.93539 2.20312,-2.13281 v -5.625 c 0,-1.19742 -1.03232,-2.13284 -2.20312,-2.13281 h -2.39063 c -0.32144,-1.09998 -0.73069,-2.16982 -1.26562,-3.1875 l 1.64062,-1.6875 v -0.0234 c 0.78653,-0.80307 0.89675,-2.15012 0.0703,-2.97656 l -4.00782,-4.00781 c -0.82642,-0.82646 -2.17349,-0.71632 -2.97656,0.0703 -0.005,0.005 -0.0181,-0.005 -0.0234,0 l -1.687497,1.64062 c -1.017684,-0.53493 -2.087527,-0.94418 -3.1875,-1.26562 v -2.39063 c 0,-1.17079 -0.935395,-2.20312 -2.132812,-2.20312 z m 2.8125,10.75781 9.49219,9.49219 h -3.492189 a 0.71888853,0.71888853 0 0 0 -0.726563,0.72656 v 8.27344 H 85.791103 v -8.27344 A 0.71888853,0.71888853 0 0 0 85.06454,191.9595 h -3.492187 z"
         id="path3853"
         style="display:block;overflow:visible;visibility:visible;opacity:0.15;fill:#000000;fill-opacity:1;fill-rule:nonzero;stroke:none;stroke-width:0.75;marker:none;enable-background:accumulate" />
      <path
         d="m 88.25204,212.93606 c -0.796938,0 -1.40625,-0.66601 -1.40625,-1.47656 v -2.88281 c -1.42497,-0.37967 -2.832339,-0.89265 -4.078125,-1.61719 l -2.039062,1.96875 c -0.286581,0.28656 -0.613517,0.48905 -0.984375,0.49219 -0.370858,0.003 -0.702617,-0.14013 -0.984375,-0.42188 l -4.007813,-4.00781 c -0.563513,-0.56352 -0.502802,-1.3956 0.07031,-1.96875 l 1.96875,-2.03906 c -0.724545,-1.24579 -1.237511,-2.65316 -1.617188,-4.07813 H 72.2911 c -0.810557,0 -1.476563,-0.60932 -1.476563,-1.40625 v -5.625 c 0,-0.79693 0.666008,-1.40625 1.476563,-1.40625 h 2.882812 c 0.379677,-1.42497 0.892654,-2.83234 1.617188,-4.07812 l -1.96875,-2.03907 c -0.573149,-0.57315 -0.633875,-1.40523 -0.07031,-1.96875 l 4.007813,-4.00781 c 0.563513,-0.56352 1.3956,-0.50283 1.96875,0.0703 l 2.039062,1.96875 c 1.245786,-0.72454 2.653155,-1.23752 4.078125,-1.61718 v -2.88282 c 0,-0.81055 0.609312,-1.47656 1.40625,-1.47656 h 5.625001 c 0.796936,0 1.40625,0.66601 1.40625,1.47656 v 2.88282 c 1.424972,0.37966 2.83234,0.89264 4.078125,1.61718 l 2.039064,-1.96875 c 0.57314,-0.57314 1.40523,-0.63385 1.96875,-0.0703 l 4.00781,4.00781 c 0.56351,0.56352 0.50276,1.39561 -0.0703,1.96875 l -1.96875,2.03907 c 0.72453,1.24578 1.23752,2.65315 1.61719,4.07812 h 2.88281 c 0.81054,-2e-5 1.47656,0.60932 1.47656,1.40625 v 5.625 c 0,0.79693 -0.66602,1.40625 -1.47656,1.40625 h -2.88281 c -0.37967,1.42497 -0.89266,2.83234 -1.61719,4.07813 l 1.96875,2.03906 c 0.57314,0.57315 0.6339,1.40523 0.0703,1.96875 l -4.00781,4.00781 c -0.56353,0.56351 -1.3956,0.50276 -1.96875,-0.0703 l -2.039064,-1.96875 c -1.245787,0.72454 -2.653153,1.23752 -4.078125,1.61719 v 2.88281 c 0,0.81056 -0.609321,1.47656 -1.40625,1.47656 z m -3.1875,-11.25 h 12.000001 v -9 h 5.249999 l -11.25,-11.25 -11.25,11.25 h 5.25 z"
         inkscape:connector-curvature="0"
         id="path3847"
         style="display:block;overflow:visible;visibility:visible;opacity:0.3;fill:#000000;fill-opacity:1;fill-rule:nonzero;stroke:none;stroke-width:0.75;marker:none;enable-background:accumulate" />
      <path
         d="m 88.25204,212.18606 c -0.796938,0 -1.40625,-0.66601 -1.40625,-1.47656 v -2.88281 c -1.42497,-0.37967 -2.832339,-0.89265 -4.078125,-1.61719 l -2.039062,1.96875 c -0.286581,0.28656 -0.613517,0.48905 -0.984375,0.49219 -0.370858,0.003 -0.702617,-0.14013 -0.984375,-0.42188 l -4.007813,-4.00781 c -0.563513,-0.56352 -0.502802,-1.3956 0.07031,-1.96875 l 1.96875,-2.03906 c -0.724545,-1.24579 -1.237511,-2.65316 -1.617188,-4.07813 H 72.2911 c -0.810557,0 -1.476563,-0.60932 -1.476563,-1.40625 v -5.625 c 0,-0.79693 0.666008,-1.40625 1.476563,-1.40625 h 2.882812 c 0.379677,-1.42497 0.892654,-2.83234 1.617188,-4.07812 l -1.96875,-2.03907 c -0.573149,-0.57315 -0.633875,-1.40523 -0.07031,-1.96875 l 4.007813,-4.00781 c 0.563513,-0.56352 1.3956,-0.50283 1.96875,0.0703 l 2.039062,1.96875 c 1.245786,-0.72454 2.653155,-1.23752 4.078125,-1.61718 v -2.88282 c 0,-0.81055 0.609312,-1.47656 1.40625,-1.47656 h 5.625001 c 0.796936,0 1.40625,0.66601 1.40625,1.47656 v 2.88282 c 1.424972,0.37966 2.83234,0.89264 4.078125,1.61718 l 2.039064,-1.96875 c 0.57314,-0.57314 1.40523,-0.63385 1.96875,-0.0703 l 4.00781,4.00781 c 0.56351,0.56352 0.50276,1.39561 -0.0703,1.96875 l -1.96875,2.03907 c 0.72453,1.24578 1.23752,2.65315 1.61719,4.07812 h 2.88281 c 0.81054,-2e-5 1.47656,0.60932 1.47656,1.40625 v 5.625 c 0,0.79693 -0.66602,1.40625 -1.47656,1.40625 h -2.88281 c -0.37967,1.42497 -0.89266,2.83234 -1.61719,4.07813 l 1.96875,2.03906 c 0.57314,0.57315 0.6339,1.40523 0.0703,1.96875 l -4.00781,4.00781 c -0.56353,0.56351 -1.3956,0.50276 -1.96875,-0.0703 l -2.039064,-1.96875 c -1.245787,0.72454 -2.653153,1.23752 -4.078125,1.61719 v 2.88281 c 0,0.81056 -0.609321,1.47656 -1.40625,1.47656 z m -3.1875,-11.25 h 12.000001 v -9 h 5.249999 l -11.25,-11.25 -11.25,11.25 h 5.25 z"
         inkscape:connector-curvature="0"
         id="rect3267"
         style="display:block;overflow:visible;visibility:visible;fill:url(#linearGradient3053);fill-opacity:1;fill-rule:nonzero;stroke:none;stroke-width:0.75;marker:none;enable-background:accumulate" />
      <path
         d="m 88.25204,212.18606 c -0.796938,0 -1.40625,-0.66601 -1.40625,-1.47656 v -0.75 c 0,0.81055 0.609312,1.47656 1.40625,1.47656 h 5.625001 c 0.796929,0 1.40625,-0.666 1.40625,-1.47656 v 0.75 c 0,0.81056 -0.609321,1.47656 -1.40625,1.47656 z m -8.507812,-3.51562 c -0.370858,0.003 -0.702617,-0.14013 -0.984375,-0.42188 l -4.007813,-4.00781 c -0.371219,-0.37122 -0.466719,-0.85898 -0.328125,-1.3125 0.06044,0.19958 0.161781,0.39615 0.328125,0.5625 l 4.007813,4.00781 c 0.281758,0.28175 0.613517,0.42503 0.984375,0.42188 0.370858,-0.003 0.697794,-0.20563 0.984375,-0.49219 l 2.039062,-1.96875 c 1.245786,0.72454 2.653155,1.23752 4.078125,1.61719 v 0.75 c -1.42497,-0.37967 -2.832339,-0.89265 -4.078125,-1.61719 l -2.039062,1.96875 c -0.286581,0.28656 -0.613517,0.48905 -0.984375,0.49219 z m 22.640622,-0.0234 c -0.3501,-0.0164 -0.6978,-0.18221 -0.98437,-0.46875 l -2.039064,-1.96875 c -1.245787,0.72454 -2.653153,1.23752 -4.078125,1.61719 v -0.75 c 1.424972,-0.37967 2.832338,-0.89265 4.078125,-1.61719 l 2.039064,1.96875 c 0.57315,0.57307 1.40522,0.63382 1.96875,0.0703 l 4.00781,-4.00781 c 0.16637,-0.16635 0.26769,-0.36292 0.32813,-0.5625 0.13861,0.45352 0.0431,0.94128 -0.32813,1.3125 l -4.00781,4.00781 c -0.28177,0.28176 -0.63427,0.41482 -0.98438,0.39844 z m -25.85156,-8.90625 c -0.586338,-1.121 -1.028057,-2.34246 -1.359375,-3.58594 h -2.882812 c -0.810557,0 -1.476563,-0.60932 -1.476563,-1.40625 v -0.75 c 0,0.79693 0.666006,1.40625 1.476563,1.40625 h 2.882812 c 0.379677,1.42497 0.892643,2.83234 1.617188,4.07813 z m 29.0625,0 -0.25781,-0.25781 c 0.72453,-1.24579 1.23752,-2.65316 1.61719,-4.07813 h 2.88281 c 0.81054,0 1.47656,-0.60932 1.47656,-1.40625 v 0.75 c 0,0.79693 -0.66602,1.40625 -1.47656,1.40625 h -2.88281 c -0.33131,1.24348 -0.77304,2.46494 -1.35938,3.58594 z m -25.78125,-8.55469 11.25,-11.25 11.25,11.25 h -0.75 l -10.5,-10.5 -10.5,10.5 z m -3.28125,-7.80469 -1.710937,-1.78125 c -0.40396,-0.40396 -0.54274,-0.92972 -0.398438,-1.40625 0.0718,0.23493 0.202856,0.46067 0.398438,0.65625 l 1.96875,2.03907 c -0.09228,0.15867 -0.172233,0.32857 -0.257813,0.49218 z m 29.0625,0 c -0.0856,-0.16361 -0.16553,-0.33351 -0.25781,-0.49218 l 1.96875,-2.03907 c 0.19555,-0.19558 0.32664,-0.42132 0.39844,-0.65625 0.14428,0.47653 0.005,1.00229 -0.39844,1.40625 z"
         inkscape:connector-curvature="0"
         id="path3868"
         style="display:block;overflow:visible;visibility:visible;opacity:0.15;fill:#000000;fill-opacity:1;fill-rule:nonzero;stroke:none;stroke-width:0.75;marker:none;enable-background:accumulate" />
      <path
         d="m 74.423915,203.67825 c -0.144291,-0.47653 -0.0055,-1.00229 0.398438,-1.40625 l 1.710937,-1.78125 c 0.08558,0.16362 0.16553,0.33351 0.257813,0.49219 l -1.96875,2.03906 c -0.19557,0.19558 -0.326645,0.42132 -0.398438,0.65625 z m 33.281255,0 c -0.0718,-0.23493 -0.20286,-0.46067 -0.39844,-0.65625 l -1.96875,-2.03906 c 0.0923,-0.15868 0.17223,-0.32857 0.25781,-0.49219 l 1.71094,1.78125 c 0.40395,0.40396 0.54274,0.92972 0.39844,1.40625 z m -22.64063,-1.99219 v -0.75 h 12.000001 v 0.75 z m -5.25,-9 0.75,-0.75 h 4.5 v 0.75 z m 17.250001,0 v -0.75 h 4.499999 l 0.75,0.75 z m -26.250001,-2.8125 v -0.75 c 0,-0.79693 0.666008,-1.40625 1.476563,-1.40625 h 2.882812 c 0.331319,-1.24348 0.773043,-2.46495 1.359375,-3.58594 l 0.257813,0.25782 c -0.724534,1.24578 -1.237511,2.65315 -1.617188,4.07812 h -2.882812 c -0.810555,0 -1.476563,0.60932 -1.476563,1.40625 z m 40.5,0 c 0,-0.79693 -0.66602,-1.40627 -1.47656,-1.40625 h -2.88281 c -0.37967,-1.42497 -0.89266,-2.83234 -1.61719,-4.07812 l 0.25781,-0.25782 c 0.58634,1.12099 1.02807,2.34246 1.35938,3.58594 h 2.88281 c 0.81054,-2e-5 1.47656,0.60932 1.47656,1.40625 z m -36.890625,-8.92969 c -0.138605,-0.45351 -0.04312,-0.94127 0.328125,-1.3125 l 4.007813,-4.00781 c 0.563513,-0.56352 1.3956,-0.50283 1.96875,0.0703 l 2.039062,1.96875 c 1.245786,-0.72454 2.653155,-1.23752 4.078125,-1.61718 v 0.75 c -1.42497,0.37966 -2.832339,0.89264 -4.078125,1.61718 l -2.039062,-1.96875 c -0.57315,-0.57314 -1.405237,-0.63383 -1.96875,-0.0703 l -4.007813,4.00781 c -0.166359,0.16635 -0.267687,0.36292 -0.328125,0.5625 z m 33.281255,0 c -0.0604,-0.19958 -0.16178,-0.39615 -0.32813,-0.5625 l -4.00781,-4.00781 c -0.56352,-0.56354 -1.39561,-0.50283 -1.96875,0.0703 l -2.039064,1.96875 c -1.245785,-0.72454 -2.653153,-1.23752 -4.078125,-1.61718 v -0.75 c 1.424972,0.37966 2.83234,0.89264 4.078125,1.61718 l 2.039064,-1.96875 c 0.57314,-0.57314 1.40523,-0.63385 1.96875,-0.0703 l 4.00781,4.00781 c 0.37122,0.37123 0.46672,0.85899 0.32813,1.3125 z m -20.85938,-7.03125 v -0.75 c 0,-0.81055 0.609312,-1.47656 1.40625,-1.47656 h 5.625001 c 0.796936,0 1.40625,0.66601 1.40625,1.47656 v 0.75 c 0,-0.81055 -0.609314,-1.47656 -1.40625,-1.47656 H 88.25204 c -0.796938,0 -1.40625,0.66601 -1.40625,1.47656 z"
         inkscape:connector-curvature="0"
         id="path3877"
         style="display:block;overflow:visible;visibility:visible;opacity:0.75;fill:#ffffff;fill-opacity:1;fill-rule:nonzero;stroke:none;stroke-width:0.75;marker:none;enable-background:accumulate" />
    </g>
  </g>
</svg>
