<?xml version="1.0" encoding="UTF-8" standalone="no"?>
<svg
   xmlns:dc="http://purl.org/dc/elements/1.1/"
   xmlns:cc="http://creativecommons.org/ns#"
   xmlns:rdf="http://www.w3.org/1999/02/22-rdf-syntax-ns#"
   xmlns:svg="http://www.w3.org/2000/svg"
   xmlns="http://www.w3.org/2000/svg"
   xmlns:xlink="http://www.w3.org/1999/xlink"
   version="1.1"
   id="svg2"
   height="274.43201"
   width="274.43201">
  <defs
     id="defs4">
    <linearGradient
       id="linearGradient3978">
      <stop
         id="stop3980"
         offset="0"
         style="stop-color:#ffffff;stop-opacity:1;" />
      <stop
         id="stop3982"
         offset="1"
         style="stop-color:#ffffff;stop-opacity:0;" />
    </linearGradient>
    <linearGradient
       id="linearGradient3952">
      <stop
         id="stop3954"
         offset="0"
         style="stop-color:#f2f2f2;stop-opacity:1;" />
      <stop
         id="stop3956"
         offset="1"
         style="stop-color:#f2f2f2;stop-opacity:0;" />
    </linearGradient>
    <linearGradient
       id="linearGradient3931">
      <stop
         id="stop3933"
         offset="0"
         style="stop-color:#202020;stop-opacity:1;" />
      <stop
         id="stop3935"
         offset="1"
         style="stop-color:#1a1a1a;stop-opacity:1;" />
    </linearGradient>
    <linearGradient
       id="linearGradient3896">
      <stop
         id="stop3898"
         offset="0"
         style="stop-color:#cd602b;stop-opacity:1;" />
      <stop
         id="stop3900"
         offset="1"
         style="stop-color:#cd2b2b;stop-opacity:1;" />
    </linearGradient>
    <linearGradient
       id="linearGradient4134">
      <stop
         id="stop4136"
         offset="0"
         style="stop-color:#ffffff;stop-opacity:1;" />
      <stop
         id="stop4138"
         offset="1"
         style="stop-color:#ececec;stop-opacity:1;" />
    </linearGradient>
    <linearGradient
       id="linearGradient3916">
      <stop
         id="stop3918"
         offset="0"
         style="stop-color:#ffffff;stop-opacity:1;" />
      <stop
         id="stop3920"
         offset="1"
         style="stop-color:#e5e5e5;stop-opacity:1;" />
    </linearGradient>
    <linearGradient
       id="linearGradient3838">
      <stop
         id="stop3840"
         offset="0"
         style="stop-color:#00ccff;stop-opacity:1;" />
      <stop
         style="stop-color:#db1cd8;stop-opacity:0.29374999;"
         offset="0.50000006"
         id="stop3842" />
      <stop
         id="stop3844"
         offset="1"
         style="stop-color:#00ccff;stop-opacity:0;" />
    </linearGradient>
    <linearGradient
       id="linearGradient4622">
      <stop
         style="stop-color:#00ccff;stop-opacity:1;"
         offset="0"
         id="stop4624" />
      <stop
         id="stop4626"
         offset="0.62261778"
         style="stop-color:#db1cd8;stop-opacity:0.29374999;" />
      <stop
         style="stop-color:#00ccff;stop-opacity:0;"
         offset="1"
         id="stop4628" />
    </linearGradient>
    <linearGradient
       id="linearGradient3883">
      <stop
         id="stop3885"
         offset="0"
         style="stop-color:#00ff6d;stop-opacity:1;" />
      <stop
         id="stop3887"
         offset="1"
         style="stop-color:#00ff9d;stop-opacity:0;" />
    </linearGradient>
    <linearGradient
       id="linearGradient3875">
      <stop
         id="stop3877"
         offset="0"
         style="stop-color:#ff0061;stop-opacity:1;" />
      <stop
         id="stop3879"
         offset="1"
         style="stop-color:#ff0061;stop-opacity:0;" />
    </linearGradient>
    <linearGradient
       id="linearGradient3814">
      <stop
         id="stop3816"
         offset="0"
         style="stop-color:#008d9c;stop-opacity:1;" />
      <stop
         id="stop3818"
         offset="1"
         style="stop-color:#008d9c;stop-opacity:0;" />
    </linearGradient>
    <linearGradient
       id="linearGradient3769">
      <stop
         id="stop3771"
         offset="0"
         style="stop-color:#00ccff;stop-opacity:1;" />
      <stop
         style="stop-color:#db1cd8;stop-opacity:0.29374999;"
         offset="0.5"
         id="stop3784" />
      <stop
         id="stop3773"
         offset="1"
         style="stop-color:#00ccff;stop-opacity:0;" />
    </linearGradient>
    <linearGradient
       gradientTransform="matrix(1.0057861,0,0,1.0057861,-8.6127751,811.84018)"
       gradientUnits="userSpaceOnUse"
       y2="204.43738"
       x2="145.67661"
       y1="39.017067"
       x1="145.67661"
       id="linearGradient3775-0"
       xlink:href="#linearGradient3769-5" />
    <linearGradient
       id="linearGradient3769-5">
      <stop
         id="stop3771-1"
         offset="0"
         style="stop-color:#00ccff;stop-opacity:1;" />
      <stop
         style="stop-color:#db1cd8;stop-opacity:0.29374999;"
         offset="0.5"
         id="stop3784-9" />
      <stop
         id="stop3773-8"
         offset="1"
         style="stop-color:#00ccff;stop-opacity:0;" />
    </linearGradient>
    <linearGradient
       gradientTransform="matrix(0.92431917,0,0,0.92431917,33.590696,71.811258)"
       gradientUnits="userSpaceOnUse"
       y2="962.36218"
       x2="140"
       y1="922.36218"
       x1="140"
       id="linearGradient3820-1"
       xlink:href="#linearGradient3814-6" />
    <linearGradient
       id="linearGradient3814-6">
      <stop
         id="stop3816-1"
         offset="0"
         style="stop-color:#ff941f;stop-opacity:1;" />
      <stop
         id="stop3818-9"
         offset="1"
         style="stop-color:#ff6447;stop-opacity:0;" />
    </linearGradient>
    <linearGradient
       gradientTransform="matrix(0.87570243,0,0,0.87570243,-361.65303,924.58758)"
       gradientUnits="userSpaceOnUse"
       y2="204.43738"
       x2="145.67661"
       y1="39.017067"
       x1="145.67661"
       id="linearGradient3775-2"
       xlink:href="#linearGradient3769-2" />
    <linearGradient
       id="linearGradient3769-2">
      <stop
         id="stop3771-7"
         offset="0"
         style="stop-color:#00ccff;stop-opacity:1;" />
      <stop
         style="stop-color:#db1cd8;stop-opacity:0.29374999;"
         offset="0.5"
         id="stop3784-4" />
      <stop
         id="stop3773-6"
         offset="1"
         style="stop-color:#00ccff;stop-opacity:0;" />
    </linearGradient>
    <linearGradient
       gradientTransform="matrix(0.80477205,0,0,0.80477205,-324.90796,280.27054)"
       gradientUnits="userSpaceOnUse"
       y2="962.36218"
       x2="140"
       y1="922.36218"
       x1="140"
       id="linearGradient3820-5"
       xlink:href="#linearGradient3814-3" />
    <linearGradient
       id="linearGradient3814-3">
      <stop
         id="stop3816-3"
         offset="0"
         style="stop-color:#008d9c;stop-opacity:1;" />
      <stop
         id="stop3818-5"
         offset="1"
         style="stop-color:#008d9c;stop-opacity:0;" />
    </linearGradient>
    <radialGradient
       gradientUnits="userSpaceOnUse"
       gradientTransform="matrix(-1.9976843,2.4215517,-2.2797722,-2.3221033,2557.9371,2642.3697)"
       r="110.12753"
       fy="930.70764"
       fx="154.9223"
       cy="930.70764"
       cx="154.9223"
       id="radialGradient3858-6"
       xlink:href="#linearGradient3769-5-6" />
    <linearGradient
       id="linearGradient3769-5-6">
      <stop
         id="stop3771-1-3"
         offset="0"
         style="stop-color:#00ccff;stop-opacity:1;" />
      <stop
         style="stop-color:#db1cd8;stop-opacity:0.29374999;"
         offset="0.5"
         id="stop3784-9-7" />
      <stop
         id="stop3773-8-2"
         offset="1"
         style="stop-color:#00ccff;stop-opacity:0;" />
    </linearGradient>
    <radialGradient
       gradientUnits="userSpaceOnUse"
       gradientTransform="matrix(-1.9597692,2.4215517,-2.2365032,-2.3221033,2514.0386,2642.3697)"
       r="110.12753"
       fy="930.70764"
       fx="154.9223"
       cy="930.70764"
       cx="154.9223"
       id="radialGradient3858-4"
       xlink:href="#linearGradient3769-5-5" />
    <linearGradient
       id="linearGradient3769-5-5">
      <stop
         id="stop3771-1-4"
         offset="0"
         style="stop-color:#00ccff;stop-opacity:1;" />
      <stop
         style="stop-color:#db1cd8;stop-opacity:0.29374999;"
         offset="0.5"
         id="stop3784-9-8" />
      <stop
         id="stop3773-8-7"
         offset="1"
         style="stop-color:#00ccff;stop-opacity:0;" />
    </linearGradient>
    <radialGradient
       gradientUnits="userSpaceOnUse"
       gradientTransform="matrix(-2.536372,2.8181903,-2.7229092,-2.4506185,735.96498,-60.394722)"
       r="110.17627"
       fy="98.044632"
       fx="133.65482"
       cy="98.044632"
       cx="133.65482"
       id="radialGradient3836-9"
       xlink:href="#linearGradient3838-9" />
    <linearGradient
       id="linearGradient3838-9">
      <stop
         id="stop3840-7"
         offset="0"
         style="stop-color:#00ccff;stop-opacity:1;" />
      <stop
         style="stop-color:#db1cd8;stop-opacity:0.29374999;"
         offset="0.5928458"
         id="stop3842-4" />
      <stop
         id="stop3844-9"
         offset="1"
         style="stop-color:#00ccff;stop-opacity:0;" />
    </linearGradient>
    <radialGradient
       gradientUnits="userSpaceOnUse"
       gradientTransform="matrix(1,0,0,1.1708902,0,-13.732987)"
       r="24.046875"
       fy="80.361481"
       fx="-145.65875"
       cy="80.361481"
       cx="-145.65875"
       id="radialGradient3922"
       xlink:href="#linearGradient3916" />
    <radialGradient
       gradientUnits="userSpaceOnUse"
       gradientTransform="matrix(-2.536372,2.8181903,-2.7229092,-2.4506185,735.96498,-60.394722)"
       r="110.17627"
       fy="98.044632"
       fx="133.65482"
       cy="98.044632"
       cx="133.65482"
       id="radialGradient3836-1"
       xlink:href="#linearGradient3838-8" />
    <linearGradient
       id="linearGradient3838-8">
      <stop
         id="stop3840-8"
         offset="0"
         style="stop-color:#00ccff;stop-opacity:1;" />
      <stop
         style="stop-color:#db1cd8;stop-opacity:0.29374999;"
         offset="0.5928458"
         id="stop3842-9" />
      <stop
         id="stop3844-3"
         offset="1"
         style="stop-color:#00ccff;stop-opacity:0;" />
    </linearGradient>
    <radialGradient
       gradientTransform="matrix(0.9375,3.046875,-1.28745,0.39613841,38.748519,-115.19061)"
       gradientUnits="userSpaceOnUse"
       r="128"
       fy="9.7423315"
       fx="68.047195"
       cy="9.7423315"
       cx="68.047195"
       id="radialGradient3902-4"
       xlink:href="#linearGradient3896-9" />
    <linearGradient
       id="linearGradient3896-9">
      <stop
         id="stop3898-5"
         offset="0"
         style="stop-color:#cd602b;stop-opacity:1;" />
      <stop
         id="stop3900-5"
         offset="1"
         style="stop-color:#cd2b2b;stop-opacity:1;" />
    </linearGradient>
    <radialGradient
       gradientTransform="matrix(0.9375,3.046875,-1.28745,0.39613841,38.748519,-1167.5528)"
       gradientUnits="userSpaceOnUse"
       r="128"
       fy="9.7423315"
       fx="68.047195"
       cy="9.7423315"
       cx="68.047195"
       id="radialGradient3902-1"
       xlink:href="#linearGradient3896-6" />
    <linearGradient
       id="linearGradient3896-6">
      <stop
         id="stop3898-7"
         offset="0"
         style="stop-color:#cd602b;stop-opacity:1;" />
      <stop
         id="stop3900-0"
         offset="1"
         style="stop-color:#cd2b2b;stop-opacity:1;" />
    </linearGradient>
    <radialGradient
       gradientUnits="userSpaceOnUse"
       gradientTransform="matrix(2.8181818,-0.27272619,0.18389093,1.9002138,-405.97768,-794.86883)"
       r="55"
       fy="922.36218"
       fx="130"
       cy="922.36218"
       cx="130"
       id="radialGradient3937"
       xlink:href="#linearGradient3931" />
    <radialGradient
       gradientUnits="userSpaceOnUse"
       gradientTransform="matrix(3.4242701,1.2494923,-1.112799,3.0496583,-80.368403,-131.99224)"
       r="49"
       fy="34.526299"
       fx="49"
       cy="34.526299"
       cx="49"
       id="radialGradient3958"
       xlink:href="#linearGradient3952" />
    <linearGradient
       gradientTransform="translate(0.18296994,0.08188383)"
       gradientUnits="userSpaceOnUse"
       y2="932.36218"
       x2="150"
       y1="712.36218"
       x1="-20"
       id="linearGradient3984"
       xlink:href="#linearGradient3978" />
    <linearGradient
       gradientTransform="translate(0.18296994,0.08188383)"
       gradientUnits="userSpaceOnUse"
       y2="932.36218"
       x2="150"
       y1="712.36218"
       x1="-20"
       id="linearGradient3984-5"
       xlink:href="#linearGradient3978-1" />
    <linearGradient
       id="linearGradient3978-1">
      <stop
         id="stop3980-3"
         offset="0"
         style="stop-color:#ffffff;stop-opacity:1;" />
      <stop
         id="stop3982-0"
         offset="1"
         style="stop-color:#ffffff;stop-opacity:0;" />
    </linearGradient>
    <filter
       id="filter4057">
      <feGaussianBlur
         id="feGaussianBlur4059"
         stdDeviation="2.97" />
    </filter>
    <filter
       height="1.4080001"
       y="-0.20400004"
       width="1.0544"
       x="-0.027199999"
       id="filter4079">
      <feGaussianBlur
         id="feGaussianBlur4081"
         stdDeviation="1.7000001" />
    </filter>
    <linearGradient
       gradientUnits="userSpaceOnUse"
       y2="37.126526"
       x2="47.121319"
       y1="5.9947963"
       x1="26.928932"
       id="linearGradient4304"
       xlink:href="#linearGradient4298"
       gradientTransform="matrix(1.241885,0,0,1.241885,71.566492,817.58945)" />
    <linearGradient
       id="linearGradient4298">
      <stop
         id="stop4300"
         offset="0"
         style="stop-color:#000000;stop-opacity:1;" />
      <stop
         id="stop4302"
         offset="1"
         style="stop-color:#000000;stop-opacity:0;" />
    </linearGradient>
  </defs>
  <metadata
     id="metadata7">
    <rdf:RDF>
      <cc:Work
         rdf:about="">
        <dc:format>image/svg+xml</dc:format>
        <dc:type
           rdf:resource="http://purl.org/dc/dcmitype/StillImage" />
        <dc:title></dc:title>
        <dc:creator>
          <cc:Agent>
            <dc:title>Malcer</dc:title>
          </cc:Agent>
        </dc:creator>
      </cc:Work>
    </rdf:RDF>
  </metadata>
  <g
     transform="translate(8.7869998,-787.86042)"
     id="layer1">
    <rect
       ry="8.0050764"
       rx="10"
       transform="matrix(1,0,0,1.1345196,-8.7869998,751.05831)"
       y="249.50177"
       x="63.786999"
       height="19.999998"
       width="150.00002"
       id="rect4061"
       style="opacity:0.2;fill:#000000;fill-opacity:1;stroke:none;filter:url(#filter4079)" />
    <rect
       ry="10.000009"
       rx="10"
       y="796.38812"
       x="59.976089"
       height="256"
       width="140"
       id="rect3120-5-6"
       style="fill:#000000;fill-opacity:1;stroke:none;filter:url(#filter4057);opacity:0.7" />
    <rect
       ry="10.000009"
       rx="10"
       y="796.36218"
       x="60"
       height="256"
       width="140"
       id="rect3120"
       style="fill:#f2f2f2;fill-opacity:1;stroke:#6a6a6a;stroke-opacity:1;stroke-width:0.5;stroke-miterlimit:4;stroke-dasharray:none" />
    <rect
       ry="0"
       rx="2.7634765e-06"
       transform="translate(-8.7869998,787.86042)"
       y="24.501772"
       x="78.787003"
       height="220"
       width="120"
       id="rect3905"
       style="fill:#111111;fill-opacity:1;stroke:none" />
    <rect
       ry="0"
       rx="2.7634765e-06"
       y="817.36218"
       x="75"
       height="210.00002"
       width="110"
       id="rect3905-0"
       style="fill:url(#radialGradient3937);fill-opacity:1;stroke:none" />
    <rect
       ry="2.5"
       rx="3.0000029"
       y="803.3443"
       x="110"
       height="5"
       width="40"
       id="rect3925-7"
       style="fill:#ffffff;fill-opacity:1;stroke:none;opacity:0.7" />
    <rect
       ry="2.5"
       rx="3.0000029"
       transform="translate(-8.7869998,787.86042)"
       y="14.501771"
       x="118.787"
       height="5"
       width="40"
       id="rect3925"
       style="fill:#111111;fill-opacity:1;stroke:none" />
    <path
       d="m 107.787,17.001772 a 1.5,1.5 0 0 1 -1.5,1.5 1.5,1.5 0 0 1 -1.5,-1.5 1.5,1.5 0 0 1 1.5,-1.5 1.5,1.5 0 0 1 1.5,1.5 z"
       id="path3929-4"
       style="fill:#ffffff;fill-opacity:1;stroke:none;opacity:0.7"
       transform="translate(-8.7870021,788.84256)" />
    <path
       transform="translate(-8.7869998,787.86042)"
       d="m 107.787,17.001772 a 1.5,1.5 0 0 1 -1.5,1.5 1.5,1.5 0 0 1 -1.5,-1.5 1.5,1.5 0 0 1 1.5,-1.5 1.5,1.5 0 0 1 1.5,1.5 z"
       id="path3929"
       style="fill:#111111;fill-opacity:1;stroke:none" />
    <g
       style="fill:#f2f2f2;fill-opacity:1"
       id="g3764"
       transform="matrix(0.91709397,0,0,0.91709397,67.337619,866.62723)">
      <g
         transform="translate(59.2336,11.2066)"
         style="fill:#f2f2f2;fill-rule:nonzero;stroke:none;fill-opacity:1"
         id="g15" />
      <g
         transform="translate(19.32,28.4763)"
         style="fill:#f2f2f2;fill-rule:nonzero;stroke:none;fill-opacity:1"
         id="g30">
        <path
           d="m 18.0991,0.0201 c -0.1947,0.0201 -0.4053,0.0738 -0.5517,0.2207 0,0 -6.7689,6.7688 -6.7689,6.7688 -0.2843,0.2851 -0.319,0.7216 -0.1103,1.0667 0,0 7.9092,13.0594 7.9092,13.0594 -1.4044,2.3608 -2.5448,4.8933 -3.3477,7.5781 0,0 -14.530751,3.0165 -14.530751,3.0165 C 0.29459,31.8139 0,32.1988 0,32.6132 c 0,0 0,9.5645 0,9.5645 0,0.4044 0.307536,0.7507 0.698949,0.8461 0,0 14.089351,3.4212 14.089351,3.4212 0.7534,3.1084 1.9174,6.0828 3.4579,8.792 0,0 -8.1666,12.4339 -8.1666,12.4339 -0.2278,0.3473 -0.18337,0.8106 0.1103,1.1038 0,0 6.7689,6.7687 6.7689,6.7687 0.2851,0.2842 0.7224,0.3199 1.0667,0.1103 0,0 12.8018,-7.7619 12.8018,-7.7619 2.5109,1.4495 5.2294,2.6109 8.0931,3.3844 0,0 2.9798,14.3471 2.9798,14.3471 0.0835,0.405 0.432,0.699 0.846,0.699 0,0 9.5646,0 9.5646,0 0.4014,0 0.7508,-0.27 0.846,-0.663 0,0 3.5316,-14.42 3.5316,-14.42 2.9535,-0.7964 5.7382,-1.9786 8.3139,-3.4947 0,0 12.6178,8.277 12.6178,8.277 0.3479,0.2266 0.8087,0.1828 1.1036,-0.1103 0,0 6.7321,-6.7689 6.7321,-6.7689 0.2859,-0.2853 0.3565,-0.7224 0.1471,-1.0668 0,0 -4.5984,-7.578 -4.5984,-7.578 0,0 -1.5083,0.4783 -1.5083,0.4783 -0.2178,0.0671 -0.4591,-0.0314 -0.5886,-0.2209 0,0 -2.9047,-4.2728 -6.6952,-9.822 -4.5332,8.8706 -13.7783,14.9354 -24.4264,14.9354 -15.1308,0 -27.4061,-12.2753 -27.4061,-27.4061 0,-11.1298 6.6555,-20.6892 16.1862,-24.9782 0,0 0,-7.0631 0,-7.0631 -1.7346,0.6071 -3.4103,1.3396 -5.003,2.2072 -0.003,-0.0018 0.0029,-0.0351 0,-0.0367 0,0 -12.9121,-8.4611 -12.9121,-8.4611 C 18.4773,0.0169 18.2938,0 18.0991,0.0201 c 0,0 0,0 0,0 z m 39.0307,-17.2898 c 0,0 -17.2162,1.65541 -17.2162,1.65541 0,0 0,70.92489 0,70.92489 0,0 17.0323,-2.575 17.0323,-2.575 0,0 0,-30.2388 0,-30.2388 0,0 22.9183,33.5495 22.9183,33.5495 0,0 17.9518,-5.7019 17.9518,-5.7019 0,0 -23.47,-32.2621 -23.47,-32.2621 0,0 23.654,-30.42257 23.654,-30.42257 0,0 -18.3198,-4.193694 -18.3198,-4.193694 0,0 -22.7343,30.422764 -22.7343,30.422764 0,0 0.1839,-31.1585 0.1839,-31.1585 0,0 0,0 0,0 z"
           style="fill:url(#radialGradient3958);stroke:none;fill-opacity:1"
           id="path32" />
      </g>
    </g>
    <rect
       ry="10.000009"
       rx="10"
       y="796.44403"
       x="60.182972"
       height="256"
       width="140"
       id="rect3120-5"
       style="opacity:0.5;fill:url(#linearGradient3984);fill-opacity:1;stroke:none" />
    <g
       transform="translate(4)"
       id="g4055">
      <rect
         style="fill:#2d3033;fill-opacity:1;stroke-width:1.24188507"
         id="rect23"
         height="49.6754"
         rx="1.2418944"
         y="822.55695"
         x="76.534042"
         width="49.6754"
         ry="1.2419001" />
      <path
         style="color:#000000;clip-rule:nonzero;display:inline;overflow:visible;visibility:visible;opacity:0.4;isolation:auto;mix-blend-mode:normal;color-interpolation:sRGB;color-interpolation-filters:linearRGB;solid-color:#000000;solid-opacity:1;fill:url(#linearGradient4304);fill-opacity:1;fill-rule:evenodd;stroke:none;stroke-width:1.24188507;stroke-linecap:butt;stroke-linejoin:miter;stroke-miterlimit:4;stroke-dasharray:none;stroke-dashoffset:0;stroke-opacity:1;color-rendering:auto;image-rendering:auto;shape-rendering:auto;text-rendering:auto;enable-background:accumulate"
         d="m 83.030403,854.45737 16.533163,16.5331 h 26.645864 l -0.005,-20.0253 -12.37518,-12.39941 -30.736655,3.54126 10.827671,10.82775 z"
         id="path4265" />
      <path
         style="opacity:0.3;fill:#000000;fill-opacity:1;stroke-width:1.24188507"
         d="m 76.53403,869.74867 v 1.2418 c 0,0.688 0.553878,1.2419 1.241882,1.2419 h 47.191638 c 0.688,0 1.24188,-0.5539 1.24188,-1.2419 v -1.2418 c 0,0.688 -0.55388,1.2418 -1.24188,1.2418 H 77.775912 c -0.688004,0 -1.241882,-0.5538 -1.241882,-1.2418 z"
         id="rect4185" />
      <path
         id="path4200"
         d="m 76.53403,825.04078 v -1.2419 c 0,-0.688 0.553878,-1.2419 1.241882,-1.2419 h 47.191638 c 0.688,0 1.24188,0.5539 1.24188,1.2419 v 1.2419 c 0,-0.688 -0.55388,-1.2419 -1.24188,-1.2419 H 77.775912 c -0.688004,0 -1.241882,0.5539 -1.241882,1.2419 z"
         style="opacity:0.3;fill:#ffffff;fill-opacity:1;stroke-width:1.24188507" />
      <rect
         style="color:#000000;clip-rule:nonzero;display:inline;overflow:visible;visibility:visible;opacity:0.194;isolation:auto;mix-blend-mode:normal;color-interpolation:sRGB;color-interpolation-filters:linearRGB;solid-color:#000000;solid-opacity:1;fill:#ffffff;fill-opacity:1;fill-rule:evenodd;stroke:none;stroke-width:1.24188507;stroke-linecap:butt;stroke-linejoin:miter;stroke-miterlimit:4;stroke-dasharray:none;stroke-dashoffset:0;stroke-opacity:1;marker:none;color-rendering:auto;image-rendering:auto;shape-rendering:auto;text-rendering:auto;enable-background:accumulate"
         id="rect4159"
         width="37.25655"
         height="2.4837701"
         x="82.743446"
         y="839.94336"
         rx="1.2418851"
         ry="1.187001" />
      <path
         id="path4172"
         d="m 83.937452,839.92835 c -0.691877,0 -1.248878,0.557 -1.248878,1.24899 0,0.69181 0.557001,1.24881 1.248878,1.24881 h 26.149518 v -2.4978 z"
         style="color:#000000;clip-rule:nonzero;display:inline;overflow:visible;visibility:visible;opacity:1;isolation:auto;mix-blend-mode:normal;color-interpolation:sRGB;color-interpolation-filters:linearRGB;solid-color:#000000;solid-opacity:1;fill:#3daee9;fill-opacity:1;fill-rule:evenodd;stroke:none;stroke-width:1.24188507;stroke-linecap:butt;stroke-linejoin:miter;stroke-miterlimit:4;stroke-dasharray:none;stroke-dashoffset:0;stroke-opacity:1;marker:none;color-rendering:auto;image-rendering:auto;shape-rendering:auto;text-rendering:auto;enable-background:accumulate" />
      <path
         style="color:#000000;clip-rule:nonzero;display:inline;overflow:visible;visibility:visible;opacity:0.3;isolation:auto;mix-blend-mode:normal;color-interpolation:sRGB;color-interpolation-filters:linearRGB;solid-color:#000000;solid-opacity:1;fill:#ffffff;fill-opacity:1;fill-rule:evenodd;stroke:none;stroke-width:1.24188507;stroke-linecap:butt;stroke-linejoin:miter;stroke-miterlimit:4;stroke-dasharray:none;stroke-dashoffset:0;stroke-opacity:1;marker:none;color-rendering:auto;image-rendering:auto;shape-rendering:auto;text-rendering:auto;enable-background:accumulate"
         d="m 83.936831,839.92888 c -0.691877,0 -1.249159,0.55735 -1.249159,1.24916 0,0.118 0.03773,0.22205 0.06793,0.32986 0.146571,-0.52677 0.606438,-0.9192 1.181244,-0.9192 h 26.149924 v -0.65982 z"
         id="path4242" />
      <circle
         r="3.6158864"
         cy="841.10986"
         cx="111.27238"
         id="circle4174"
         style="color:#000000;clip-rule:nonzero;display:inline;overflow:visible;visibility:visible;opacity:1;isolation:auto;mix-blend-mode:normal;color-interpolation:sRGB;color-interpolation-filters:linearRGB;solid-color:#000000;solid-opacity:1;fill:#fafafa;fill-opacity:1;fill-rule:evenodd;stroke:none;stroke-width:1.24188507;stroke-linecap:butt;stroke-linejoin:miter;stroke-miterlimit:4;stroke-dasharray:none;stroke-dashoffset:0;stroke-opacity:1;marker:none;color-rendering:auto;image-rendering:auto;shape-rendering:auto;text-rendering:auto;enable-background:accumulate" />
      <rect
         ry="1.0223486"
         rx="1.2418851"
         y="852.36218"
         x="82.743446"
         height="2.4837701"
         width="37.25655"
         id="rect4225"
         style="color:#000000;clip-rule:nonzero;display:inline;overflow:visible;visibility:visible;opacity:0.194;isolation:auto;mix-blend-mode:normal;color-interpolation:sRGB;color-interpolation-filters:linearRGB;solid-color:#000000;solid-opacity:1;fill:#ffffff;fill-opacity:1;fill-rule:evenodd;stroke:none;stroke-width:1.24188507;stroke-linecap:butt;stroke-linejoin:miter;stroke-miterlimit:4;stroke-dasharray:none;stroke-dashoffset:0;stroke-opacity:1;marker:none;color-rendering:auto;image-rendering:auto;shape-rendering:auto;text-rendering:auto;enable-background:accumulate" />
      <path
         style="color:#000000;clip-rule:nonzero;display:inline;overflow:visible;visibility:visible;opacity:1;isolation:auto;mix-blend-mode:normal;color-interpolation:sRGB;color-interpolation-filters:linearRGB;solid-color:#000000;solid-opacity:1;fill:#3daee9;fill-opacity:1;fill-rule:evenodd;stroke:none;stroke-width:1.24188507;stroke-linecap:butt;stroke-linejoin:miter;stroke-miterlimit:4;stroke-dasharray:none;stroke-dashoffset:0;stroke-opacity:1;marker:none;color-rendering:auto;image-rendering:auto;shape-rendering:auto;text-rendering:auto;enable-background:accumulate"
         d="m 83.937452,852.34727 c -0.691877,0 -1.248878,0.5569 -1.248878,1.2489 0,0.6919 0.557001,1.2489 1.248878,1.2489 h 13.730664 v -2.4978 z"
         id="path4227" />
      <path
         id="path4247"
         d="m 83.936831,852.34767 c -0.691877,0 -1.249159,0.5574 -1.249159,1.2493 0,0.118 0.03773,0.222 0.06793,0.3298 0.146571,-0.5268 0.606438,-0.9192 1.181244,-0.9192 h 13.73107 v -0.6599 z"
         style="color:#000000;clip-rule:nonzero;display:inline;overflow:visible;visibility:visible;opacity:0.3;isolation:auto;mix-blend-mode:normal;color-interpolation:sRGB;color-interpolation-filters:linearRGB;solid-color:#000000;solid-opacity:1;fill:#ffffff;fill-opacity:1;fill-rule:evenodd;stroke:none;stroke-width:1.24188507;stroke-linecap:butt;stroke-linejoin:miter;stroke-miterlimit:4;stroke-dasharray:none;stroke-dashoffset:0;stroke-opacity:1;marker:none;color-rendering:auto;image-rendering:auto;shape-rendering:auto;text-rendering:auto;enable-background:accumulate" />
      <circle
         style="color:#000000;clip-rule:nonzero;display:inline;overflow:visible;visibility:visible;opacity:1;isolation:auto;mix-blend-mode:normal;color-interpolation:sRGB;color-interpolation-filters:linearRGB;solid-color:#000000;solid-opacity:1;fill:#fafafa;fill-opacity:1;fill-rule:evenodd;stroke:none;stroke-width:1.24188507;stroke-linecap:butt;stroke-linejoin:miter;stroke-miterlimit:4;stroke-dasharray:none;stroke-dashoffset:0;stroke-opacity:1;marker:none;color-rendering:auto;image-rendering:auto;shape-rendering:auto;text-rendering:auto;enable-background:accumulate"
         id="circle4229"
         cx="96.369759"
         cy="853.52875"
         r="3.6158864" />
      <path
         style="color:#000000;clip-rule:nonzero;display:inline;overflow:visible;visibility:visible;opacity:0.15;isolation:auto;mix-blend-mode:normal;color-interpolation:sRGB;color-interpolation-filters:linearRGB;solid-color:#000000;solid-opacity:1;fill:#000000;fill-opacity:1;fill-rule:evenodd;stroke:none;stroke-width:1.24188507;stroke-linecap:butt;stroke-linejoin:miter;stroke-miterlimit:4;stroke-dasharray:none;stroke-dashoffset:0;stroke-opacity:1;marker:none;color-rendering:auto;image-rendering:auto;shape-rendering:auto;text-rendering:auto;enable-background:accumulate"
         d="m 114.87965,840.84327 a 3.6158867,3.6158867 0 0 1 -3.60679,3.41764 3.6158867,3.6158867 0 0 1 -3.60681,-3.35208 3.6158867,3.6158867 0 0 0 -0.01,0.20131 3.6158867,3.6158867 0 0 0 3.61651,3.61649 3.6158867,3.6158867 0 0 0 3.6165,-3.61649 3.6158867,3.6158867 0 0 0 -0.01,-0.26687 z"
         id="circle4231" />
      <path
         id="path4240"
         d="m 99.977026,853.26207 a 3.6158867,3.6158867 0 0 1 -3.60679,3.4177 3.6158867,3.6158867 0 0 1 -3.60681,-3.3521 3.6158867,3.6158867 0 0 0 -0.01,0.2013 3.6158867,3.6158867 0 0 0 3.61651,3.6165 3.6158867,3.6158867 0 0 0 3.6165,-3.6165 3.6158867,3.6158867 0 0 0 -0.01,-0.2669 z"
         style="color:#000000;clip-rule:nonzero;display:inline;overflow:visible;visibility:visible;opacity:0.15;isolation:auto;mix-blend-mode:normal;color-interpolation:sRGB;color-interpolation-filters:linearRGB;solid-color:#000000;solid-opacity:1;fill:#000000;fill-opacity:1;fill-rule:evenodd;stroke:none;stroke-width:1.24188507;stroke-linecap:butt;stroke-linejoin:miter;stroke-miterlimit:4;stroke-dasharray:none;stroke-dashoffset:0;stroke-opacity:1;marker:none;color-rendering:auto;image-rendering:auto;shape-rendering:auto;text-rendering:auto;enable-background:accumulate" />
    </g>
  </g>
</svg>
