<?xml version="1.0" encoding="UTF-8" standalone="no"?>
<!-- Created with Sodipodi ("http://www.sodipodi.com/") -->

<svg
   xmlns:dc="http://purl.org/dc/elements/1.1/"
   xmlns:cc="http://creativecommons.org/ns#"
   xmlns:rdf="http://www.w3.org/1999/02/22-rdf-syntax-ns#"
   xmlns:svg="http://www.w3.org/2000/svg"
   xmlns="http://www.w3.org/2000/svg"
   xmlns:xlink="http://www.w3.org/1999/xlink"
   xmlns:sodipodi="http://sodipodi.sourceforge.net/DTD/sodipodi-0.dtd"
   xmlns:inkscape="http://www.inkscape.org/namespaces/inkscape"
   id="svg602"
   sodipodi:version="0.32"
   width="207.98854"
   height="214.70995"
   xml:space="preserve"
   sodipodi:docname="logo.svg"
   inkscape:version="0.48.5 r10040"
   inkscape:output_extension="org.inkscape.output.svg.inkscape"
   version="1.0"
   sodipodi:modified="true"><metadata
     id="metadata2887"><rdf:RDF><cc:Work
         rdf:about=""><dc:format>image/svg+xml</dc:format><dc:type
           rdf:resource="http://purl.org/dc/dcmitype/StillImage" /><dc:title></dc:title></cc:Work></rdf:RDF></metadata><defs
     id="defs604"><linearGradient
       id="linearGradient1335"><stop
         style="stop-color:#ff0000;stop-opacity:1;"
         offset="0"
         id="stop1336" /><stop
         style="stop-color:#ffffff;stop-opacity:1;"
         offset="1"
         id="stop1337" /></linearGradient><linearGradient
       id="linearGradient769"><stop
         style="stop-color:#ffffff;stop-opacity:0;"
         offset="0"
         id="stop770" /><stop
         style="stop-color:#ffffff;stop-opacity:1;"
         offset="1"
         id="stop771" /></linearGradient><linearGradient
       id="linearGradient708"><stop
         style="stop-color:#ffffff;stop-opacity:1;"
         offset="0"
         id="stop709" /><stop
         style="stop-color:#7800ff;stop-opacity:0;"
         offset="1"
         id="stop710" /></linearGradient><linearGradient
       id="linearGradient700"><stop
         style="stop-color:#ffffff;stop-opacity:1;"
         offset="0"
         id="stop701" /><stop
         style="stop-color:#7893ce;stop-opacity:1;"
         offset="1"
         id="stop702" /></linearGradient><linearGradient
       id="linearGradient655"><stop
         style="stop-color:#ffffc4;stop-opacity:1;"
         offset="0"
         id="stop656" /><stop
         style="stop-color:#ffb200;stop-opacity:1;"
         offset="1"
         id="stop657" /></linearGradient><linearGradient
       id="linearGradient647"><stop
         style="stop-color:#ff78a4;stop-opacity:1;"
         offset="0"
         id="stop648" /><stop
         style="stop-color:#ffb200;stop-opacity:1;"
         offset="1"
         id="stop649" /></linearGradient><linearGradient
       id="linearGradient632"><stop
         style="stop-color:#ffffff;stop-opacity:0;"
         offset="0"
         id="stop633" /><stop
         style="stop-color:#4c4964;stop-opacity:1;"
         offset="1"
         id="stop634" /></linearGradient><linearGradient
       id="linearGradient615"><stop
         style="stop-color:#4c3af6;stop-opacity:0;"
         offset="0"
         id="stop616" /><stop
         style="stop-color:#ffffff;stop-opacity:1;"
         offset="1"
         id="stop617" /></linearGradient><linearGradient
       xlink:href="#linearGradient655"
       id="linearGradient618"
       x1="0.18005764"
       y1="0.1093921"
       x2="0.93788803"
       y2="0.8203125" /><radialGradient
       xlink:href="#linearGradient615"
       id="radialGradient619"
       cx="0.15944815"
       cy="0.26284"
       r="0.92969614"
       fx="0.15944815"
       fy="0.26284" /><radialGradient
       xlink:href="#linearGradient632"
       id="radialGradient635"
       cx="0.48837426"
       cy="0.53124559"
       r="0.671525"
       fx="0.48837426"
       fy="0.53124559" /><radialGradient
       xlink:href="#linearGradient647"
       id="radialGradient650"
       cx="0.49999997"
       cy="0.50000006"
       r="0.5"
       fx="0.49999997"
       fy="0.50000006" /><linearGradient
       xlink:href="#linearGradient700"
       id="linearGradient699"
       x1="0.54822361"
       y1="0.64843786"
       x2="0.31472093"
       y2="0.5078125" /><linearGradient
       xlink:href="#linearGradient655"
       id="linearGradient707"
       x1="0.4367741"
       y1="0.0078057721"
       x2="-0.045976806"
       y2="0.4921875" /><radialGradient
       xlink:href="#linearGradient708"
       id="radialGradient711"
       cx="0.5"
       cy="0.50000095"
       r="0.5"
       fx="0.5"
       fy="0.50000095" /><linearGradient
       xlink:href="#linearGradient769"
       id="linearGradient765"
       x1="162.79858"
       y1="470.96921"
       x2="143.30646"
       y2="402.57782"
       gradientTransform="scale(1.224534,0.816637)"
       gradientUnits="userSpaceOnUse" /><linearGradient
       xlink:href="#linearGradient769"
       id="linearGradient768"
       x1="720.44562"
       y1="223.49982"
       x2="762.99377"
       y2="146.33066"
       gradientTransform="scale(0.645026,1.550325)"
       gradientUnits="userSpaceOnUse" /><linearGradient
       xlink:href="#linearGradient1335"
       id="linearGradient1333"
       x1="0.77599984"
       y1="0.6171602"
       x2="1.0159997"
       y2="0.29687476" /><radialGradient
       inkscape:collect="always"
       xlink:href="#linearGradient632"
       id="radialGradient16770"
       gradientUnits="userSpaceOnUse"
       cx="345.27927"
       cy="570.62762"
       fx="345.27927"
       fy="570.62762"
       r="57.780815" /><radialGradient
       inkscape:collect="always"
       xlink:href="#linearGradient647"
       id="radialGradient16772"
       gradientUnits="userSpaceOnUse"
       gradientTransform="scale(1.013794,0.986394)"
       cx="346.45255"
       cy="574.31061"
       fx="346.45255"
       fy="574.31061"
       r="49.038811" /><radialGradient
       inkscape:collect="always"
       xlink:href="#linearGradient615"
       id="radialGradient16774"
       gradientUnits="userSpaceOnUse"
       cx="318.67987"
       cy="548.71869"
       fx="318.67987"
       fy="548.71869"
       r="75.346458" /><radialGradient
       inkscape:collect="always"
       xlink:href="#linearGradient632"
       id="radialGradient16776"
       gradientUnits="userSpaceOnUse"
       cx="345.25095"
       cy="570.70374"
       fx="345.25095"
       fy="570.70374"
       r="59.416851" /><linearGradient
       inkscape:collect="always"
       xlink:href="#linearGradient769"
       id="linearGradient16778"
       gradientUnits="userSpaceOnUse"
       gradientTransform="matrix(0.44494,0,0,1.069417,-33.56411,-21.42237)"
       x1="720.44562"
       y1="223.49982"
       x2="762.99377"
       y2="146.33066" /><radialGradient
       inkscape:collect="always"
       xlink:href="#linearGradient615"
       id="radialGradient16780"
       gradientUnits="userSpaceOnUse"
       cx="318.67987"
       cy="548.71869"
       fx="318.67987"
       fy="548.71869"
       r="75.346458" /><radialGradient
       inkscape:collect="always"
       xlink:href="#linearGradient647"
       id="radialGradient16782"
       gradientUnits="userSpaceOnUse"
       gradientTransform="scale(1.013794,0.986394)"
       cx="346.45255"
       cy="574.31061"
       fx="346.45255"
       fy="574.31061"
       r="49.038811" /><linearGradient
       inkscape:collect="always"
       xlink:href="#linearGradient655"
       id="linearGradient16784"
       gradientUnits="userSpaceOnUse"
       gradientTransform="scale(1.10935,0.901429)"
       x1="217.6362"
       y1="382.6832"
       x2="255.4395"
       y2="418.14648" /><linearGradient
       inkscape:collect="always"
       xlink:href="#linearGradient655"
       id="linearGradient16786"
       gradientUnits="userSpaceOnUse"
       gradientTransform="scale(1.10935,0.901429)"
       x1="217.6362"
       y1="382.6832"
       x2="255.4395"
       y2="418.14648" /><linearGradient
       inkscape:collect="always"
       xlink:href="#linearGradient655"
       id="linearGradient16788"
       gradientUnits="userSpaceOnUse"
       gradientTransform="scale(1.10935,0.901429)"
       x1="217.6362"
       y1="382.6832"
       x2="255.4395"
       y2="418.14648" /><linearGradient
       inkscape:collect="always"
       xlink:href="#linearGradient655"
       id="linearGradient16790"
       gradientUnits="userSpaceOnUse"
       gradientTransform="scale(1.10935,0.901429)"
       x1="217.6362"
       y1="382.6832"
       x2="255.4395"
       y2="418.14648" /><linearGradient
       inkscape:collect="always"
       xlink:href="#linearGradient655"
       id="linearGradient16792"
       gradientUnits="userSpaceOnUse"
       gradientTransform="scale(0.83077,1.203702)"
       x1="665.59949"
       y1="374.88013"
       x2="644.2713"
       y2="396.28033" /><linearGradient
       inkscape:collect="always"
       xlink:href="#linearGradient700"
       id="linearGradient16794"
       gradientUnits="userSpaceOnUse"
       gradientTransform="scale(1.145164,0.873237)"
       x1="363.18799"
       y1="711.41846"
       x2="341.52203"
       y2="698.3703" /><linearGradient
       inkscape:collect="always"
       xlink:href="#linearGradient769"
       id="linearGradient16796"
       gradientUnits="userSpaceOnUse"
       gradientTransform="matrix(0.569961,0,0,0.83484,-33.56411,-21.42237)"
       x1="380.40988"
       y1="194.26994"
       x2="353.58154"
       y2="100.13831" /><linearGradient
       inkscape:collect="always"
       xlink:href="#linearGradient769"
       id="linearGradient16798"
       gradientUnits="userSpaceOnUse"
       gradientTransform="matrix(0.755415,0,0,0.629888,-33.56411,-21.42237)"
       x1="182.06319"
       y1="353.38733"
       x2="158.75699"
       y2="271.61359" /><linearGradient
       inkscape:collect="always"
       xlink:href="#linearGradient769"
       id="linearGradient16800"
       gradientUnits="userSpaceOnUse"
       gradientTransform="matrix(0.660463,0,0,0.720444,-33.56411,-21.42237)"
       x1="246.91922"
       y1="255.14349"
       x2="218.64024"
       y2="155.92197" /><linearGradient
       inkscape:collect="always"
       xlink:href="#linearGradient769"
       id="linearGradient16802"
       gradientUnits="userSpaceOnUse"
       gradientTransform="matrix(0.844686,0,0,0.563318,-33.56411,-21.42237)"
       x1="162.79858"
       y1="470.96921"
       x2="143.30646"
       y2="402.57782" /><radialGradient
       inkscape:collect="always"
       xlink:href="#linearGradient632"
       id="radialGradient17957"
       gradientUnits="userSpaceOnUse"
       cx="345.27927"
       cy="570.62762"
       fx="345.27927"
       fy="570.62762"
       r="57.780815" /><radialGradient
       inkscape:collect="always"
       xlink:href="#linearGradient615"
       id="radialGradient17959"
       gradientUnits="userSpaceOnUse"
       cx="318.67987"
       cy="548.71869"
       fx="318.67987"
       fy="548.71869"
       r="75.346458" /><radialGradient
       inkscape:collect="always"
       xlink:href="#linearGradient632"
       id="radialGradient17961"
       gradientUnits="userSpaceOnUse"
       cx="345.25095"
       cy="570.70374"
       fx="345.25095"
       fy="570.70374"
       r="59.416851" /><linearGradient
       inkscape:collect="always"
       xlink:href="#linearGradient769"
       id="linearGradient17963"
       gradientUnits="userSpaceOnUse"
       gradientTransform="matrix(0.44494,0,0,1.069417,-33.56411,-57.42237)"
       x1="720.44562"
       y1="223.49982"
       x2="762.99377"
       y2="146.33066" /><radialGradient
       inkscape:collect="always"
       xlink:href="#linearGradient615"
       id="radialGradient17965"
       gradientUnits="userSpaceOnUse"
       cx="318.67987"
       cy="548.71869"
       fx="318.67987"
       fy="548.71869"
       r="75.346458" /><radialGradient
       inkscape:collect="always"
       xlink:href="#linearGradient647"
       id="radialGradient17967"
       gradientUnits="userSpaceOnUse"
       gradientTransform="scale(1.013794,0.986394)"
       cx="346.45255"
       cy="574.31061"
       fx="346.45255"
       fy="574.31061"
       r="49.038811" /><radialGradient
       inkscape:collect="always"
       xlink:href="#linearGradient647"
       id="radialGradient17969"
       gradientUnits="userSpaceOnUse"
       gradientTransform="scale(1.013794,0.986394)"
       cx="346.45255"
       cy="574.31061"
       fx="346.45255"
       fy="574.31061"
       r="49.038811" /><linearGradient
       inkscape:collect="always"
       xlink:href="#linearGradient655"
       id="linearGradient17971"
       gradientUnits="userSpaceOnUse"
       gradientTransform="scale(1.10935,0.901429)"
       x1="217.6362"
       y1="382.6832"
       x2="255.4395"
       y2="418.14648" /><linearGradient
       inkscape:collect="always"
       xlink:href="#linearGradient655"
       id="linearGradient17973"
       gradientUnits="userSpaceOnUse"
       gradientTransform="matrix(0.8094328,0.082593,-0.06711293,0.6577241,-8.530437,-250.8662)"
       x1="217.6362"
       y1="382.6832"
       x2="255.4395"
       y2="418.14648" /><linearGradient
       inkscape:collect="always"
       xlink:href="#linearGradient655"
       id="linearGradient17975"
       gradientUnits="userSpaceOnUse"
       gradientTransform="scale(1.10935,0.901429)"
       x1="217.6362"
       y1="382.6832"
       x2="255.4395"
       y2="418.14648" /><linearGradient
       inkscape:collect="always"
       xlink:href="#linearGradient655"
       id="linearGradient17977"
       gradientUnits="userSpaceOnUse"
       gradientTransform="scale(1.10935,0.901429)"
       x1="217.6362"
       y1="382.6832"
       x2="255.4395"
       y2="418.14648" /><linearGradient
       inkscape:collect="always"
       xlink:href="#linearGradient655"
       id="linearGradient17979"
       gradientUnits="userSpaceOnUse"
       gradientTransform="matrix(0.6022202,-0.09271726,0.134338,0.8725564,-147.0888,-167.0935)"
       x1="665.59949"
       y1="374.88013"
       x2="644.2713"
       y2="396.28033" /><linearGradient
       inkscape:collect="always"
       xlink:href="#linearGradient700"
       id="linearGradient17981"
       gradientUnits="userSpaceOnUse"
       gradientTransform="matrix(0.8392105,-0.03408486,0.02599117,0.6399343,-91.658215,-189.817)"
       x1="353.73373"
       y1="716.2832"
       x2="334.85324"
       y2="721.44049" /><linearGradient
       inkscape:collect="always"
       xlink:href="#linearGradient769"
       id="linearGradient17983"
       gradientUnits="userSpaceOnUse"
       gradientTransform="matrix(0.569961,0,0,0.83484,-33.56411,-57.42237)"
       x1="380.40988"
       y1="194.26994"
       x2="353.58154"
       y2="100.13831" /><linearGradient
       inkscape:collect="always"
       xlink:href="#linearGradient769"
       id="linearGradient17985"
       gradientUnits="userSpaceOnUse"
       gradientTransform="matrix(0.755415,0,0,0.629888,-33.56411,-57.42237)"
       x1="182.06319"
       y1="353.38733"
       x2="158.75699"
       y2="271.61359" /><linearGradient
       inkscape:collect="always"
       xlink:href="#linearGradient769"
       id="linearGradient17987"
       gradientUnits="userSpaceOnUse"
       gradientTransform="matrix(0.660463,0,0,0.720444,-33.56411,-57.42237)"
       x1="246.91922"
       y1="255.14349"
       x2="218.64024"
       y2="155.92197" /><linearGradient
       inkscape:collect="always"
       xlink:href="#linearGradient769"
       id="linearGradient17989"
       gradientUnits="userSpaceOnUse"
       gradientTransform="matrix(0.844686,0,0,0.563318,-33.56411,-57.42237)"
       x1="162.79858"
       y1="470.96921"
       x2="143.30646"
       y2="402.57782" /><radialGradient
       inkscape:collect="always"
       xlink:href="#linearGradient632"
       id="radialGradient18107"
       gradientUnits="userSpaceOnUse"
       cx="345.27927"
       cy="570.62762"
       fx="345.27927"
       fy="570.62762"
       r="57.780815" /><radialGradient
       inkscape:collect="always"
       xlink:href="#linearGradient615"
       id="radialGradient18109"
       gradientUnits="userSpaceOnUse"
       cx="318.67987"
       cy="548.71869"
       fx="318.67987"
       fy="548.71869"
       r="75.346458" /><radialGradient
       inkscape:collect="always"
       xlink:href="#linearGradient632"
       id="radialGradient18111"
       gradientUnits="userSpaceOnUse"
       cx="345.25095"
       cy="570.70374"
       fx="345.25095"
       fy="570.70374"
       r="59.416851" /><linearGradient
       inkscape:collect="always"
       xlink:href="#linearGradient769"
       id="linearGradient18113"
       gradientUnits="userSpaceOnUse"
       gradientTransform="matrix(0.44494,0,0,1.069417,-33.56411,-57.42237)"
       x1="720.44562"
       y1="223.49982"
       x2="762.99377"
       y2="146.33066" /><radialGradient
       inkscape:collect="always"
       xlink:href="#linearGradient615"
       id="radialGradient18115"
       gradientUnits="userSpaceOnUse"
       cx="318.67987"
       cy="548.71869"
       fx="318.67987"
       fy="548.71869"
       r="75.346458" /><radialGradient
       inkscape:collect="always"
       xlink:href="#linearGradient647"
       id="radialGradient18117"
       gradientUnits="userSpaceOnUse"
       gradientTransform="scale(1.013794,0.986394)"
       cx="346.45255"
       cy="574.31061"
       fx="346.45255"
       fy="574.31061"
       r="49.038811" /><radialGradient
       inkscape:collect="always"
       xlink:href="#linearGradient647"
       id="radialGradient18119"
       gradientUnits="userSpaceOnUse"
       gradientTransform="scale(1.013794,0.986394)"
       cx="346.45255"
       cy="574.31061"
       fx="346.45255"
       fy="574.31061"
       r="49.038811" /><linearGradient
       inkscape:collect="always"
       xlink:href="#linearGradient655"
       id="linearGradient18121"
       gradientUnits="userSpaceOnUse"
       gradientTransform="scale(1.10935,0.901429)"
       x1="217.6362"
       y1="382.6832"
       x2="255.4395"
       y2="418.14648" /><linearGradient
       inkscape:collect="always"
       xlink:href="#linearGradient655"
       id="linearGradient18123"
       gradientUnits="userSpaceOnUse"
       gradientTransform="matrix(0.8094328,0.082593,-0.06711293,0.6577241,-8.530437,-250.8662)"
       x1="217.6362"
       y1="382.6832"
       x2="255.4395"
       y2="418.14648" /><linearGradient
       inkscape:collect="always"
       xlink:href="#linearGradient655"
       id="linearGradient18125"
       gradientUnits="userSpaceOnUse"
       gradientTransform="scale(1.10935,0.901429)"
       x1="217.6362"
       y1="382.6832"
       x2="255.4395"
       y2="418.14648" /><linearGradient
       inkscape:collect="always"
       xlink:href="#linearGradient655"
       id="linearGradient18127"
       gradientUnits="userSpaceOnUse"
       gradientTransform="scale(1.10935,0.901429)"
       x1="217.6362"
       y1="382.6832"
       x2="255.4395"
       y2="418.14648" /><linearGradient
       inkscape:collect="always"
       xlink:href="#linearGradient655"
       id="linearGradient18129"
       gradientUnits="userSpaceOnUse"
       gradientTransform="matrix(0.6022202,-0.09271726,0.134338,0.8725564,-147.0888,-167.0935)"
       x1="665.59949"
       y1="374.88013"
       x2="644.2713"
       y2="396.28033" /><linearGradient
       inkscape:collect="always"
       xlink:href="#linearGradient700"
       id="linearGradient18131"
       gradientUnits="userSpaceOnUse"
       gradientTransform="matrix(0.8392105,-0.03408486,0.02599117,0.6399343,-91.658215,-189.817)"
       x1="353.73373"
       y1="716.2832"
       x2="334.85324"
       y2="721.44049" /><linearGradient
       inkscape:collect="always"
       xlink:href="#linearGradient769"
       id="linearGradient18133"
       gradientUnits="userSpaceOnUse"
       gradientTransform="matrix(0.569961,0,0,0.83484,-33.56411,-57.42237)"
       x1="380.40988"
       y1="194.26994"
       x2="353.58154"
       y2="100.13831" /><linearGradient
       inkscape:collect="always"
       xlink:href="#linearGradient769"
       id="linearGradient18135"
       gradientUnits="userSpaceOnUse"
       gradientTransform="matrix(0.755415,0,0,0.629888,-33.56411,-57.42237)"
       x1="182.06319"
       y1="353.38733"
       x2="158.75699"
       y2="271.61359" /><linearGradient
       inkscape:collect="always"
       xlink:href="#linearGradient769"
       id="linearGradient18137"
       gradientUnits="userSpaceOnUse"
       gradientTransform="matrix(0.660463,0,0,0.720444,-33.56411,-57.42237)"
       x1="246.91922"
       y1="255.14349"
       x2="218.64024"
       y2="155.92197" /><linearGradient
       inkscape:collect="always"
       xlink:href="#linearGradient769"
       id="linearGradient18139"
       gradientUnits="userSpaceOnUse"
       gradientTransform="matrix(0.844686,0,0,0.563318,-33.56411,-57.42237)"
       x1="162.79858"
       y1="470.96921"
       x2="143.30646"
       y2="402.57782" /><radialGradient
       inkscape:collect="always"
       xlink:href="#linearGradient632"
       id="radialGradient7053"
       gradientUnits="userSpaceOnUse"
       cx="345.27927"
       cy="570.62762"
       fx="345.27927"
       fy="570.62762"
       r="57.780815" /><radialGradient
       inkscape:collect="always"
       xlink:href="#linearGradient615"
       id="radialGradient7055"
       gradientUnits="userSpaceOnUse"
       cx="318.67987"
       cy="548.71869"
       fx="318.67987"
       fy="548.71869"
       r="75.346458" /><radialGradient
       inkscape:collect="always"
       xlink:href="#linearGradient632"
       id="radialGradient7057"
       gradientUnits="userSpaceOnUse"
       cx="345.25095"
       cy="570.70374"
       fx="345.25095"
       fy="570.70374"
       r="59.416851" /><linearGradient
       inkscape:collect="always"
       xlink:href="#linearGradient769"
       id="linearGradient7059"
       gradientUnits="userSpaceOnUse"
       gradientTransform="matrix(0.44494,0,0,1.069417,-33.56411,-57.42237)"
       x1="720.44562"
       y1="223.49982"
       x2="762.99377"
       y2="146.33066" /><radialGradient
       inkscape:collect="always"
       xlink:href="#linearGradient615"
       id="radialGradient7061"
       gradientUnits="userSpaceOnUse"
       cx="318.67987"
       cy="548.71869"
       fx="318.67987"
       fy="548.71869"
       r="75.346458" /><radialGradient
       inkscape:collect="always"
       xlink:href="#linearGradient647"
       id="radialGradient7063"
       gradientUnits="userSpaceOnUse"
       gradientTransform="scale(1.013794,0.986394)"
       cx="346.45255"
       cy="574.31061"
       fx="346.45255"
       fy="574.31061"
       r="49.038811" /><radialGradient
       inkscape:collect="always"
       xlink:href="#linearGradient647"
       id="radialGradient7065"
       gradientUnits="userSpaceOnUse"
       gradientTransform="scale(1.013794,0.986394)"
       cx="346.45255"
       cy="574.31061"
       fx="346.45255"
       fy="574.31061"
       r="49.038811" /><linearGradient
       inkscape:collect="always"
       xlink:href="#linearGradient655"
       id="linearGradient7067"
       gradientUnits="userSpaceOnUse"
       gradientTransform="scale(1.10935,0.901429)"
       x1="217.6362"
       y1="382.6832"
       x2="255.4395"
       y2="418.14648" /><linearGradient
       inkscape:collect="always"
       xlink:href="#linearGradient655"
       id="linearGradient7069"
       gradientUnits="userSpaceOnUse"
       gradientTransform="matrix(0.8094328,0.082593,-0.06711293,0.6577241,-8.530437,-250.8662)"
       x1="217.6362"
       y1="382.6832"
       x2="255.4395"
       y2="418.14648" /><linearGradient
       inkscape:collect="always"
       xlink:href="#linearGradient655"
       id="linearGradient7071"
       gradientUnits="userSpaceOnUse"
       gradientTransform="scale(1.10935,0.901429)"
       x1="217.6362"
       y1="382.6832"
       x2="255.4395"
       y2="418.14648" /><linearGradient
       inkscape:collect="always"
       xlink:href="#linearGradient655"
       id="linearGradient7073"
       gradientUnits="userSpaceOnUse"
       gradientTransform="scale(1.10935,0.901429)"
       x1="217.6362"
       y1="382.6832"
       x2="255.4395"
       y2="418.14648" /><linearGradient
       inkscape:collect="always"
       xlink:href="#linearGradient655"
       id="linearGradient7075"
       gradientUnits="userSpaceOnUse"
       gradientTransform="matrix(0.6022202,-0.09271726,0.134338,0.8725564,-147.0888,-167.0935)"
       x1="665.59949"
       y1="374.88013"
       x2="644.2713"
       y2="396.28033" /><linearGradient
       inkscape:collect="always"
       xlink:href="#linearGradient700"
       id="linearGradient7077"
       gradientUnits="userSpaceOnUse"
       gradientTransform="matrix(0.8392105,-0.03408486,0.02599117,0.6399343,-91.658215,-189.817)"
       x1="353.73373"
       y1="716.2832"
       x2="334.85324"
       y2="721.44049" /><linearGradient
       inkscape:collect="always"
       xlink:href="#linearGradient769"
       id="linearGradient7079"
       gradientUnits="userSpaceOnUse"
       gradientTransform="matrix(0.569961,0,0,0.83484,-33.56411,-57.42237)"
       x1="380.40988"
       y1="194.26994"
       x2="353.58154"
       y2="100.13831" /><linearGradient
       inkscape:collect="always"
       xlink:href="#linearGradient769"
       id="linearGradient7081"
       gradientUnits="userSpaceOnUse"
       gradientTransform="matrix(0.755415,0,0,0.629888,-33.56411,-57.42237)"
       x1="182.06319"
       y1="353.38733"
       x2="158.75699"
       y2="271.61359" /><linearGradient
       inkscape:collect="always"
       xlink:href="#linearGradient769"
       id="linearGradient7083"
       gradientUnits="userSpaceOnUse"
       gradientTransform="matrix(0.660463,0,0,0.720444,-33.56411,-57.42237)"
       x1="246.91922"
       y1="255.14349"
       x2="218.64024"
       y2="155.92197" /><linearGradient
       inkscape:collect="always"
       xlink:href="#linearGradient769"
       id="linearGradient7085"
       gradientUnits="userSpaceOnUse"
       gradientTransform="matrix(0.844686,0,0,0.563318,-33.56411,-57.42237)"
       x1="162.79858"
       y1="470.96921"
       x2="143.30646"
       y2="402.57782" /></defs><sodipodi:namedview
     id="base"
     pagecolor="#ffffff"
     inkscape:zoom="1.6691362"
     inkscape:cx="324.90095"
     inkscape:cy="107.77832"
     inkscape:window-width="1539"
     inkscape:window-height="973"
     inkscape:window-x="0"
     inkscape:window-y="0"
     inkscape:current-layer="svg602"
     showguides="true"
     inkscape:guide-bbox="true"
     width="744.09449px"
     height="1052.3622px"
     showgrid="false"
     fit-margin-top="0"
     fit-margin-left="0"
     fit-margin-right="0"
     fit-margin-bottom="0"
     inkscape:window-maximized="0" /><g
     id="g8427"
     transform="translate(-31.319479,-49.999995)"><g
       transform="matrix(0.694388,0,0,0.694388,13.778533,43.86311)"
       id="g17513"><path
         sodipodi:type="arc"
         style="fill:#0081f6;fill-opacity:1;stroke:#000000;stroke-width:8.16163254;stroke-miterlimit:4;stroke-opacity:1;stroke-dasharray:none"
         id="path7683"
         sodipodi:cx="854.0235"
         sodipodi:cy="-311.87265"
         sodipodi:rx="272.5607"
         sodipodi:ry="272.5607"
         d="m 1126.5842,-311.87265 c 0,150.53112 -122.0296,272.560699 -272.5607,272.560699 -150.53112,0 -272.5607,-122.029579 -272.5607,-272.560699 0,-150.53112 122.02958,-272.5607 272.5607,-272.5607 150.5007,0 272.5177,121.98211 272.5607,272.4828"
         sodipodi:start="0"
         sodipodi:end="6.2828995"
         sodipodi:open="true"
         transform="matrix(0.490098,0,0,0.490098,-229.3478,335.312)"
         inkscape:export-filename="/home/jiaxiang/Joshua's artwork/logos/Childsplay/logo_cp_800x826.png"
         inkscape:export-xdpi="240.4101"
         inkscape:export-ydpi="240.4101" /><path
         sodipodi:nodetypes="ccccccccccccccccccccccccccccccccc"
         id="path10764"
         d="M 246.61531,148.86046 C 241.40173,138.26633 235.5016,126.00656 216.63979,114.00294 211.1539,96.97292 206.6223,78.82505 199.30836,60.974125 191.73831,42.498398 180.22977,13.814015 153.87107,11.129817 134.47828,11.192251 119.85689,28.3294 129.52839,46.150846 160.71217,87.95304 169.52317,117.13325 169.86388,128.01158 140.02605,72.51277 100.48622,25.46858 64.960854,53.224221 46.633362,70.68269 70.635431,91.28836 83.712374,99.13427 c 19.059956,11.43549 32.145176,23.94304 39.097506,31.53567 6.74187,7.59163 14.74023,17.85794 17.41096,27.63324 -16.8238,-18.1464 -32.27327,-34.31899 -62.68168,-49.16961 -11.113018,-5.49268 -28.486013,-6.76721 -39.312299,2.4313 -15.21926,14.78851 -2.326028,32.47214 18.327277,38.73605 32.387747,13.72655 53.217242,26.61901 59.303262,37.8439 -7.54444,-5.41549 -17.972469,-12.13164 -26.534262,-15.752 -16.885255,-7.14011 -35.73563,-7.80286 -48.094404,-3.97443 -9.228132,3.31008 -16.71393,15.07577 -12.44454,25.67872 5.986493,13.43009 30.227907,11.31415 38.55552,11.72694 21.555346,1.06925 37.400696,9.66959 52.958386,24.33468 13.48247,12.70864 20.46997,38.07971 34.77273,46.407 9.25628,5.38866 19.92498,7.05355 30.4129,7.08254 9.01397,0.0244 26.61036,3.30085 32.96624,5.12661 5.60876,1.61131 20.7366,8.39791 30.98919,-1.3308 11.18081,-15.07431 19.43547,-5.61402 23.21099,-17.10827 3.03692,-9.24633 15.69794,-30.32782 20.88197,-38.68103 10.2938,-16.5859 5.95426,-32.7132 7.77183,-50.32868 1.47798,-14.32255 9.39241,-15.98184 7.12051,-32.90686 -1.46455,-10.91086 0.9147,-15.89808 5.56136,-25.32545 3.55487,-7.2119 13.66926,-25.89622 0.97627,-30.14355 -16.51468,-5.52602 -40.18078,11.40299 -44.89944,26.79735 -4.29948,14.02674 5.06785,30.11018 0.83336,38.31052 -1.25494,5.55248 -6.05144,5.25501 -12.36784,14.16621 -1.56941,-3.53926 -2.16284,-15.46137 -11.91286,-23.36386 z"
         style="font-size:12px;fill:#ffc200;fill-rule:evenodd;stroke:#000000;stroke-width:4.58396816;stroke-miterlimit:10;stroke-dasharray:none"
         inkscape:connector-curvature="0" /><path
         transform="matrix(0.724894,-0.111604,0.111604,0.724894,-144.4929,-179.7935)"
         sodipodi:ry="40.522095"
         sodipodi:rx="40.522079"
         sodipodi:cy="567.93921"
         sodipodi:cx="346.27954"
         d="m 386.80162,567.93921 c 0,22.37973 -18.14235,40.52209 -40.52208,40.52209 -22.37973,0 -40.52208,-18.14236 -40.52208,-40.52209 0,-22.37974 18.14235,-40.5221 40.52208,-40.5221 22.37973,0 40.52208,18.14236 40.52208,40.5221 z"
         id="path10766"
         style="font-size:12px;fill:#ffffff;fill-rule:evenodd;stroke:#000000;stroke-width:5"
         sodipodi:type="arc" /><path
         transform="matrix(0.724894,-0.111604,0.111604,0.724894,-144.4929,-179.7935)"
         sodipodi:ry="40.522095"
         sodipodi:rx="40.522079"
         sodipodi:cy="567.93921"
         sodipodi:cx="346.27954"
         d="m 386.80162,567.93921 c 0,22.37973 -18.14235,40.52209 -40.52208,40.52209 -22.37973,0 -40.52208,-18.14236 -40.52208,-40.52209 0,-22.37974 18.14235,-40.5221 40.52208,-40.5221 22.37973,0 40.52208,18.14236 40.52208,40.5221 z"
         id="path10768"
         style="font-size:12px;fill:url(#radialGradient18107);fill-rule:evenodd;stroke:#000000;stroke-width:5"
         sodipodi:type="arc" /><g
         id="g10018"><path
           sodipodi:type="arc"
           style="font-size:12px;fill:#0081f6;fill-opacity:1;fill-rule:evenodd;stroke:#000000;stroke-width:4.45949984"
           id="path10772"
           d="m 386.80162,567.93921 c 0,22.37973 -18.14235,40.52209 -40.52208,40.52209 -22.37973,0 -40.52208,-18.14236 -40.52208,-40.52209 0,-22.37974 18.14235,-40.5221 40.52208,-40.5221 22.37973,0 40.52208,18.14236 40.52208,40.5221 z"
           sodipodi:cx="346.27954"
           sodipodi:cy="567.93921"
           sodipodi:rx="40.522079"
           sodipodi:ry="40.522095"
           transform="matrix(0.40638,-0.06256574,0.06256574,0.40638,1.286363,-22.52075)" /><path
           sodipodi:type="arc"
           style="font-size:12px;fill:url(#radialGradient18109);fill-rule:evenodd;stroke-width:7.25269985"
           id="path10774"
           d="m 386.80162,567.93921 c 0,22.37973 -18.14235,40.52209 -40.52208,40.52209 -22.37973,0 -40.52208,-18.14236 -40.52208,-40.52209 0,-22.37974 18.14235,-40.5221 40.52208,-40.5221 22.37973,0 40.52208,18.14236 40.52208,40.5221 z"
           sodipodi:cx="346.27954"
           sodipodi:cy="567.93921"
           sodipodi:rx="40.522079"
           sodipodi:ry="40.522095"
           transform="matrix(0.336772,0.05134125,-0.05134125,0.336772,90.08269,-22.43089)" /><path
           sodipodi:type="arc"
           style="font-size:12px;fill-rule:evenodd;stroke:#000000;stroke-width:7.25269985"
           id="path10776"
           d="m 386.80162,567.93921 c 0,22.37973 -18.14235,40.52209 -40.52208,40.52209 -22.37973,0 -40.52208,-18.14236 -40.52208,-40.52209 0,-22.37974 18.14235,-40.5221 40.52208,-40.5221 22.37973,0 40.52208,18.14236 40.52208,40.5221 z"
           sodipodi:cx="346.27954"
           sodipodi:cy="567.93921"
           sodipodi:rx="40.522079"
           sodipodi:ry="40.522095"
           transform="matrix(0.197699,-0.03043742,0.03043742,0.197699,91.79554,84.8725)" /><path
           sodipodi:type="arc"
           style="font-size:12px;fill:#ffffff;fill-rule:evenodd"
           id="path10778"
           d="m 369.21172,550.32544 c 0,1.25934 -1.02091,2.28024 -2.28026,2.28024 -1.25935,0 -2.28026,-1.0209 -2.28026,-2.28024 0,-1.25934 1.02091,-2.28024 2.28026,-2.28024 1.25935,0 2.28026,1.0209 2.28026,2.28024 z"
           sodipodi:cx="366.93146"
           sodipodi:cy="550.32544"
           sodipodi:rx="2.2802582"
           sodipodi:ry="2.2802429"
           transform="matrix(1.268563,-0.195306,0.195306,1.268563,-389.9646,-438.1664)" /></g><path
         transform="matrix(0.51818,-0.07977836,0.07977836,0.51818,-17.93329,-109.60598)"
         sodipodi:ry="40.522095"
         sodipodi:rx="40.522079"
         sodipodi:cy="567.93921"
         sodipodi:cx="346.27954"
         d="m 386.80162,567.93921 c 0,22.37973 -18.14235,40.52209 -40.52208,40.52209 -22.37973,0 -40.52208,-18.14236 -40.52208,-40.52209 0,-22.37974 18.14235,-40.5221 40.52208,-40.5221 22.37973,0 40.52208,18.14236 40.52208,40.5221 z"
         id="path10780"
         style="font-size:12px;fill:#ffffff;fill-rule:evenodd;stroke:#000000;stroke-width:5"
         sodipodi:type="arc" /><path
         transform="matrix(0.51818,-0.07977836,0.07977836,0.51818,-17.93329,-109.60598)"
         sodipodi:ry="40.522095"
         sodipodi:rx="40.522079"
         sodipodi:cy="567.93921"
         sodipodi:cx="346.27954"
         d="m 386.80162,567.93921 c 0,22.37973 -18.14235,40.52209 -40.52208,40.52209 -22.37973,0 -40.52208,-18.14236 -40.52208,-40.52209 0,-22.37974 18.14235,-40.5221 40.52208,-40.5221 22.37973,0 40.52208,18.14236 40.52208,40.5221 z"
         id="path10782"
         style="font-size:12px;fill:url(#radialGradient18111);fill-rule:evenodd;stroke:#000000;stroke-width:7.4362998"
         sodipodi:type="arc" /><path
         sodipodi:nodetypes="ccccc"
         id="path10786"
         d="m 307.32445,96.17053 c -13.52729,4.05824 -29.08371,12.17452 -31.1129,30.43648 -2.02912,18.26189 -7.43993,62.22559 -7.43993,62.22559 l 27.73094,-27.05459 c 15.55641,5.41088 -4.73452,-25.02553 10.82189,-65.60748 z"
         style="fill:url(#linearGradient18113);fill-opacity:1;fill-rule:evenodd;stroke:none"
         inkscape:connector-curvature="0" /><g
         id="g10200"><path
           sodipodi:type="arc"
           style="font-size:12px;fill:#8dee03;fill-opacity:1;fill-rule:evenodd;stroke:#000000;stroke-width:6.23839998"
           id="path10784"
           d="m 386.80162,567.93921 c 0,22.37973 -18.14235,40.52209 -40.52208,40.52209 -22.37973,0 -40.52208,-18.14236 -40.52208,-40.52209 0,-22.37974 18.14235,-40.5221 40.52208,-40.5221 22.37973,0 40.52208,18.14236 40.52208,40.5221 z"
           sodipodi:cx="346.27954"
           sodipodi:cy="567.93921"
           sodipodi:rx="40.522079"
           sodipodi:ry="40.522095"
           transform="matrix(0.290496,-0.04472424,0.04472424,0.290496,75.24733,14.08816)" /><path
           sodipodi:type="arc"
           style="font-size:12px;fill:url(#radialGradient18115);fill-rule:evenodd;stroke-width:7.25269985"
           id="path10788"
           d="m 386.80162,567.93921 c 0,22.37973 -18.14235,40.52209 -40.52208,40.52209 -22.37973,0 -40.52208,-18.14236 -40.52208,-40.52209 0,-22.37974 18.14235,-40.5221 40.52208,-40.5221 22.37973,0 40.52208,18.14236 40.52208,40.5221 z"
           sodipodi:cx="346.27954"
           sodipodi:cy="567.93921"
           sodipodi:rx="40.522079"
           sodipodi:ry="40.522095"
           transform="matrix(0.240737,0.0367006,-0.0367006,0.240737,138.7221,14.15245)" /><path
           sodipodi:type="arc"
           style="font-size:12px;fill-rule:evenodd;stroke:#000000;stroke-width:7.25269985"
           id="path10790"
           d="m 386.80162,567.93921 c 0,22.37973 -18.14235,40.52209 -40.52208,40.52209 -22.37973,0 -40.52208,-18.14236 -40.52208,-40.52209 0,-22.37974 18.14235,-40.5221 40.52208,-40.5221 22.37973,0 40.52208,18.14236 40.52208,40.5221 z"
           sodipodi:cx="346.27954"
           sodipodi:cy="567.93921"
           sodipodi:rx="40.522079"
           sodipodi:ry="40.522095"
           transform="matrix(0.141322,-0.02175778,0.02175778,0.141322,139.9464,90.8567)" /><path
           sodipodi:type="arc"
           style="font-size:12px;fill:#ffffff;fill-rule:evenodd"
           id="path10792"
           d="m 369.21172,550.32544 c 0,1.25934 -1.02091,2.28024 -2.28026,2.28024 -1.25935,0 -2.28026,-1.0209 -2.28026,-2.28024 0,-1.25934 1.02091,-2.28024 2.28026,-2.28024 1.25935,0 2.28026,1.0209 2.28026,2.28024 z"
           sodipodi:cx="366.93146"
           sodipodi:cy="550.32544"
           sodipodi:rx="2.2802582"
           sodipodi:ry="2.2802429"
           transform="matrix(0.906815,-0.139612,0.139612,0.906815,-204.4331,-283.0305)" /></g><path
         sodipodi:nodetypes="cccc"
         id="path10794"
         d="m 129.11056,195.84116 c 0,0 -11.72306,-34.30531 21.2022,-52.31997 0,0 -4.67316,7.59481 -1.70576,15.23772 -23.22051,10.39246 -19.49644,37.08225 -19.49644,37.08225 z"
         style="font-size:12px;fill:#884200;fill-rule:evenodd;stroke:#000000;stroke-width:2.75038099;stroke-miterlimit:10;stroke-dasharray:none"
         inkscape:connector-curvature="0" /><path
         sodipodi:nodetypes="cccc"
         id="path10796"
         d="m 220.47051,128.11073 c -5.75487,-6.29284 -32.44501,-21.66241 -56.44026,1.19971 0,0 9.08994,-2.11484 15.17735,3.37804 14.58757,-16.68447 34.81912,-7.57359 41.26291,-4.57775 z"
         style="font-size:12px;fill:#884200;fill-rule:evenodd;stroke:#000000;stroke-width:2.75038099;stroke-miterlimit:10;stroke-dasharray:none"
         inkscape:connector-curvature="0" /><path
         transform="matrix(0.296625,-0.209554,0.243642,0.428402,-0.836289,25.2622)"
         sodipodi:ry="48.371582"
         sodipodi:rx="49.71524"
         sodipodi:cy="566.49646"
         sodipodi:cx="351.23145"
         d="m 400.94669,566.49646 c 0,26.71489 -22.25828,48.37158 -49.71524,48.37158 -27.45697,0 -49.71525,-21.65669 -49.71525,-48.37158 0,-26.71489 22.25828,-48.37158 49.71525,-48.37158 27.45696,0 49.71524,21.65669 49.71524,48.37158 z"
         id="path10798"
         style="font-size:12px;fill:url(#radialGradient18117);fill-rule:evenodd"
         sodipodi:type="arc" /><g
         id="g10196"><path
           sodipodi:type="arc"
           style="font-size:12px;fill:url(#radialGradient18119);fill-rule:evenodd"
           id="path10770"
           d="m 400.94669,566.49646 c 0,26.71489 -22.25828,48.37158 -49.71524,48.37158 -27.45697,0 -49.71525,-21.65669 -49.71525,-48.37158 0,-26.71489 22.25828,-48.37158 49.71525,-48.37158 27.45696,0 49.71524,21.65669 49.71524,48.37158 z"
           sodipodi:cx="351.23145"
           sodipodi:cy="566.49646"
           sodipodi:rx="49.71524"
           sodipodi:ry="48.371582"
           transform="matrix(0.555751,-0.08556235,0.08556235,0.555751,-68.41464,-47.32771)" /><path
           style="font-size:12px;fill-rule:evenodd"
           d="m 202.53198,233.12695 c 0.0558,0.36245 0.1116,0.7249 0.0768,1.10129 -2.7723,-14.69298 -16.72081,-24.55748 -31.58114,-22.26959 -14.90563,2.29485 -25.24107,15.89808 -23.4655,30.74452 -0.14642,-0.34849 -0.20222,-0.71094 -0.25802,-1.07339 -2.34368,-15.22277 8.12063,-29.49516 23.38871,-31.84582 15.22278,-2.34368 29.49547,8.12022 31.83915,23.34299 z"
           id="path10800"
           inkscape:connector-curvature="0" /></g><g
         style="font-size:12px"
         id="g10804"
         transform="matrix(0.724894,-0.111604,0.111604,0.724894,-143.4772,-167.27802)"><path
           style="fill:url(#linearGradient18121);fill-opacity:1;fill-rule:evenodd;stroke:#000000;stroke-width:2.5;stroke-linecap:butt;stroke-linejoin:miter;stroke-opacity:1;stroke-dasharray:none"
           d="m 232.721,370.8602 c 0,0 -0.5373,-30.0978 35.4725,-29.5603 33.3227,18.8111 12.8991,41.9219 -12.8991,42.4594 -17.1988,-0.5375 -22.5734,-12.8991 -22.5734,-12.8991 z"
           id="path10806"
           sodipodi:nodetypes="cccc"
           inkscape:connector-curvature="0" /><path
           style="fill:none;stroke:#000000;stroke-width:1pt;stroke-linecap:butt;stroke-linejoin:miter;stroke-opacity:1"
           d="m 255.2945,382.6844 c 0,0 2.6873,-21.4984 29.0229,-20.9609"
           id="path10808"
           sodipodi:nodetypes="cc"
           inkscape:connector-curvature="0" /></g><path
         style="font-size:12px;fill:#ffffff;fill-opacity:1;fill-rule:evenodd;stroke:none"
         d="m 78.956557,55.761632 c 0.250458,0.424199 20.820237,15.58547 20.820237,15.58547 0,0 2.100406,-1.989486 1.279336,-4.917833 C 100.235,63.501006 88.868098,52.19918 88.868098,52.19918 c 0,0 -4.389112,-0.249848 -9.911541,3.562452 z"
         id="path10810"
         inkscape:connector-curvature="0" /><path
         style="font-size:12px;fill:url(#linearGradient18123);fill-opacity:1;fill-rule:evenodd;stroke:#000000;stroke-width:1.83358657;stroke-linecap:butt;stroke-linejoin:miter;stroke-opacity:1;stroke-dasharray:none"
         d="m 133.66233,37.056938 c 0,0 1.8488,-22.000742 28.08319,-18.927566 22.91325,16.206375 6.29062,31.548506 -12.57296,30.019971 -12.50901,-1.672665 -15.51023,-11.092405 -15.51023,-11.092405 z"
         id="path10814"
         sodipodi:nodetypes="cccc"
         inkscape:connector-curvature="0" /><path
         style="font-size:12px;fill:none;stroke:#000000;stroke-width:0.73343463pt;stroke-linecap:butt;stroke-linejoin:miter;stroke-opacity:1"
         d="m 149.25267,47.365054 c 0,0 3.56137,-15.486148 22.73701,-13.133233"
         id="path10816"
         sodipodi:nodetypes="cc"
         inkscape:connector-curvature="0" /><path
         id="path10818"
         d="m 150.60048,20.980623 c 0.13562,0.473566 16.22691,20.324282 16.22691,20.324282 0,0 2.53353,-1.396761 2.47598,-4.437464 -0.0576,-3.040691 -8.21372,-16.839788 -8.21372,-16.839788 0,0 -4.18492,-1.346537 -10.48917,0.95297 z"
         style="font-size:12px;fill:#ffffff;fill-rule:evenodd"
         inkscape:connector-curvature="0" /><g
         style="font-size:12px"
         id="g10822"
         transform="matrix(0.60525,-0.264193,0.284597,0.59063,-203.81951,-20.056218)"><path
           style="fill:url(#linearGradient18125);fill-opacity:1;fill-rule:evenodd;stroke:#000000;stroke-width:2.5;stroke-linecap:butt;stroke-linejoin:miter;stroke-opacity:1;stroke-dasharray:none"
           d="m 232.721,370.8602 c 0,0 -0.5373,-30.0978 35.4725,-29.5603 33.3227,18.8111 12.8991,41.9219 -12.8991,42.4594 -17.1988,-0.5375 -22.5734,-12.8991 -22.5734,-12.8991 z"
           id="path10824"
           sodipodi:nodetypes="cccc"
           inkscape:connector-curvature="0" /><path
           style="fill:none;stroke:#000000;stroke-width:1pt;stroke-linecap:butt;stroke-linejoin:miter;stroke-opacity:1"
           d="m 255.2945,382.6844 c 0,0 2.6873,-21.4984 29.0229,-20.9609"
           id="path10826"
           sodipodi:nodetypes="cc"
           inkscape:connector-curvature="0" /></g><path
         style="font-size:12px;fill:#ffffff;fill-opacity:1;fill-rule:evenodd;stroke:none"
         d="m 48.266388,117.75589 c 0.328485,0.3024 22.230836,8.39788 22.230836,8.39788 0,0 1.323969,-2.18292 -0.149534,-4.48244 -1.473534,-2.29944 -14.33096,-9.26026 -14.33096,-9.26026 0,0 -3.903437,0.81221 -7.750342,5.34482 z"
         id="path10828"
         inkscape:connector-curvature="0" /><g
         style="font-size:12px"
         id="g10832"
         transform="matrix(0.449424,-0.327156,0.431636,0.480379,-223.01001,96.164885)"><path
           style="fill:url(#linearGradient18127);fill-opacity:1;fill-rule:evenodd;stroke:#000000;stroke-width:2.5;stroke-linecap:butt;stroke-linejoin:miter;stroke-opacity:1;stroke-dasharray:none"
           d="m 232.721,370.8602 c 0,0 -0.5373,-30.0978 35.4725,-29.5603 33.3227,18.8111 12.8991,41.9219 -12.8991,42.4594 -17.1988,-0.5375 -22.5734,-12.8991 -22.5734,-12.8991 z"
           id="path10834"
           sodipodi:nodetypes="cccc"
           inkscape:connector-curvature="0" /><path
           style="fill:none;stroke:#000000;stroke-width:1pt;stroke-linecap:butt;stroke-linejoin:miter;stroke-opacity:1"
           d="m 255.2945,382.6844 c 0,0 2.6873,-21.4984 29.0229,-20.9609"
           id="path10836"
           sodipodi:nodetypes="cc"
           inkscape:connector-curvature="0" /></g><path
         style="font-size:12px;fill:#ffffff;fill-opacity:1;fill-rule:evenodd;stroke:none"
         d="m 40.558423,179.79258 c 0.3813,0.21794 22.086072,4.04314 22.086072,4.04314 0,0 0.488463,-2.13958 -1.512584,-3.95384 -2.001049,-1.81418 -15.423125,-6.01907 -15.423125,-6.01907 0,0 -3.173263,1.31888 -5.150363,5.92977 z"
         id="path10838"
         inkscape:connector-curvature="0" /><path
         style="font-size:12px;fill:url(#linearGradient18129);fill-opacity:1;fill-rule:evenodd;stroke:#000000;stroke-width:1.83358729;stroke-linecap:butt;stroke-linejoin:miter;stroke-opacity:1;stroke-dasharray:none"
         d="m 303.35461,136.64227 c 0,0 -15.61247,-12.39785 2.26433,-35.67279 4.30615,-6.15827 15.58719,-2.476818 13.27682,3.68556 -5.54225,11.96379 -15.60382,31.5802 -15.54115,31.98723 z"
         id="path10842"
         sodipodi:nodetypes="cccc"
         inkscape:connector-curvature="0" /><path
         style="font-size:12px;fill:none;stroke:#000000;stroke-width:0.73343492pt;stroke-linecap:butt;stroke-linejoin:miter;stroke-opacity:1"
         d="m 297.00033,124.11403 c 0.53133,-0.3764 7.32868,-0.24428 9.03414,5.09152"
         id="path10844"
         inkscape:connector-curvature="0" /><path
         style="font-size:12px;fill:#ffffff;fill-rule:evenodd;stroke-width:1"
         d="m 315.69832,101.19301 c -0.19879,0.62278 -15.61538,27.12997 -15.61538,27.12997 0,0 -1.41066,-1.72483 -0.68779,-5.69307 0.72273,-3.96813 9.37722,-22.27847 9.37722,-22.27847 0,0 3.15145,-1.916432 6.92595,0.84157 z"
         id="path10846"
         inkscape:connector-curvature="0" /><path
         style="font-size:12px;fill-rule:evenodd;stroke:#000000;stroke-width:0.59037566"
         d="m 200.3259,248.35135 c -1.02981,13.31362 -16.6179,15.35499 -18.79714,16.03924 -1.12907,3.09675 1.74169,5.23849 6.65443,7.48419 -6.44838,-1.44408 -12.4694,-4.23963 -10.16477,-8.71544 20.34174,-2.1203 22.31143,-14.77578 22.30748,-14.80799 z"
         id="path10852"
         sodipodi:nodetypes="ccccc"
         inkscape:connector-curvature="0" /><path
         style="font-size:12px;fill:url(#linearGradient18131);fill-rule:evenodd;stroke:none"
         d="m 263.88571,214.47669 c -7.05365,16.63471 -14.72631,25.56894 -26.95254,32.8142 -12.22623,7.24532 -20.19485,9.60644 -46.37615,15.73952 2.47756,2.45317 11.82994,9.0875 22.83464,9.87159 29.3383,2.2377 54.48899,-11.54947 50.49405,-58.42531 z"
         id="path8060"
         sodipodi:nodetypes="cscsc"
         inkscape:connector-curvature="0" /><path
         id="path10850"
         style="font-size:12px;fill-rule:evenodd;stroke:#000000;stroke-width:2.75037813;stroke-miterlimit:10;stroke-dasharray:none"
         d="m 265.24175,209.22224 c -11.63468,35.50926 -28.06944,42.05164 -82.80988,55.14011 0,0 97.8427,41.56446 82.80988,-55.14011 z m -0.98005,4.63115 c -7.05366,16.63471 -14.72632,25.56894 -26.95255,32.8142 -12.22623,7.24532 -20.19485,9.60644 -46.37614,15.73952 2.47755,2.45317 22.96918,2.37497 22.7298,2.44518 -4.65322,1.46211 -6.54535,2.02768 -10.77345,2.87274 -7.8823,1.58753 -0.12642,3.76958 10.87828,4.55368 29.3383,2.23769 54.48899,-11.54948 50.49406,-58.42532 z"
         inkscape:connector-curvature="0" /><path
         sodipodi:nodetypes="cccc"
         id="path10856"
         d="m 141.66126,50.955112 c 12.98,3.868548 35.40595,-5.272363 34.35414,-18.062258 -2.17585,-8.190847 26.73189,38.167506 28.64961,82.199356 -2.8168,25.76997 -25.30925,-5.2894 -63.00375,-64.137098 z"
         style="fill:url(#linearGradient18133);fill-opacity:1;fill-rule:evenodd;stroke:none"
         inkscape:connector-curvature="0" /><path
         sodipodi:nodetypes="cccc"
         id="path10858"
         d="m 56.079109,144.41294 c 11.515623,-1.54344 25.840328,-16.58905 20.514849,-26.22372 -4.585665,-5.64134 53.950032,21.56604 51.349822,54.21464 6.86892,21.15036 -40.093564,-25.00394 -71.864671,-27.99092 z"
         style="fill:url(#linearGradient18135);fill-opacity:1;fill-rule:evenodd;stroke:none"
         inkscape:connector-curvature="0" /><path
         sodipodi:nodetypes="cccc"
         id="path10860"
         d="m 78.712685,86.70148 c 13.527293,0.67635 32.465535,-10.14561 29.083705,-25.701954 -4.05824,-7.440066 48.69837,35.847354 47.3456,73.047484 3.38182,25.70195 -8.11635,-0.67636 -76.429305,-47.34553 z"
         style="fill:url(#linearGradient18137);fill-opacity:1;fill-rule:evenodd;stroke:none"
         inkscape:connector-curvature="0" /><path
         sodipodi:nodetypes="cccc"
         id="path10862"
         d="m 59.163559,200.61414 c 10.719868,-4.48054 15.235725,-19.3477 7.591271,-27.26918 -5.893186,-4.25719 37.65939,2.05043 58.25461,38.34575 12.12506,18.64148 -33.71249,-14.41238 -65.845881,-11.07657 z"
         style="fill:url(#linearGradient18139);fill-opacity:1;fill-rule:evenodd;stroke:none"
         inkscape:connector-curvature="0" /></g><g
       transform="matrix(1.2890283,0,0,1.2890283,-31.720318,-397.82778)"
       id="g8369"><path
         style="font-size:6.98844671px;font-style:normal;font-weight:normal;fill:#000000;fill-opacity:1;stroke:none;font-family:Bitstream Vera Sans"
         d="m 80.541231,468.42096 -0.531917,0.32246 c 0.004,-0.21971 -0.0144,-0.42651 -0.05525,-0.62041 -0.04086,-0.1939 -0.104681,-0.37596 -0.191482,-0.54618 -0.194228,-0.38087 -0.462052,-0.60569 -0.80347,-0.67448 -0.341426,-0.0688 -0.72346,0.0249 -1.146106,0.28116 -0.422649,0.25622 -0.697263,0.56059 -0.823842,0.91309 -0.126586,0.35251 -0.09276,0.71919 0.101461,1.10006 0.0868,0.17022 0.194957,0.32541 0.324461,0.46556 0.129503,0.14015 0.280896,0.26635 0.454187,0.37856 l -0.525732,0.31872 c -0.157772,-0.11885 -0.299973,-0.25478 -0.426598,-0.40782 -0.126628,-0.15305 -0.240395,-0.32851 -0.341305,-0.52638 -0.27452,-0.53832 -0.328709,-1.06537 -0.162574,-1.58112 0.166136,-0.51576 0.527534,-0.94238 1.084194,-1.27985 0.564901,-0.34246 1.090846,-0.45169 1.577834,-0.3277 0.486982,0.124 0.872617,0.46473 1.156906,1.0222 0.09223,0.18085 0.164244,0.3684 0.216059,0.56261 0.0518,0.19423 0.08286,0.39406 0.09317,0.59952 l 0,0 z m 0.566117,7.18118 1.420297,2.05984 -0.485445,0.38634 -1.909847,-2.76982 0.485445,-0.38634 c 0.380993,0.0437 0.895635,0.107 1.543929,0.18988 0.648288,0.0829 1.061889,0.13005 1.240803,0.14151 0.33778,0.0238 0.60439,0.016 0.79983,-0.0234 0.195432,-0.0394 0.362637,-0.11439 0.501612,-0.22499 0.226535,-0.18029 0.355122,-0.40858 0.385758,-0.68485 0.03063,-0.27627 -0.04404,-0.54492 -0.224011,-0.80592 -0.127596,-0.18505 -0.293649,-0.35532 -0.498162,-0.51082 -0.204521,-0.1555 -0.451136,-0.29936 -0.739848,-0.4316 l 0.582533,-0.46361 c 0.257131,0.1634 0.480677,0.3294 0.670641,0.49799 0.189954,0.16859 0.344028,0.3386 0.462224,0.51 0.311586,0.4519 0.449639,0.90012 0.414158,1.34468 -0.03549,0.44454 -0.237892,0.81377 -0.607205,1.1077 -0.175145,0.13938 -0.364412,0.23797 -0.567799,0.29576 -0.203396,0.0578 -0.472809,0.0829 -0.808238,0.0753 -0.08879,-0.005 -0.354997,-0.0327 -0.798629,-0.0839 -0.443635,-0.0512 -1.066317,-0.12578 -1.868046,-0.2238 l 0,0 z m 6.486819,1.54803 c -0.226295,-0.28973 -0.536298,-0.38279 -0.930011,-0.27918 -0.393722,0.10361 -0.871345,0.40565 -1.432861,0.90608 -0.559703,0.49883 -0.92254,0.94584 -1.088518,1.34104 -0.16598,0.3952 -0.135826,0.73767 0.09047,1.0274 0.227737,0.29159 0.538466,0.38558 0.932186,0.28197 0.393715,-0.10361 0.870423,-0.40483 1.430125,-0.90364 0.561518,-0.50045 0.925267,-0.94827 1.091253,-1.34348 0.165972,-0.39519 0.135095,-0.7386 -0.09264,-1.03019 l 0,0 z m 0.437549,-0.38995 c 0.364086,0.46618 0.461289,0.98356 0.291605,1.55218 -0.169696,0.56862 -0.599111,1.16001 -1.288243,1.77418 -0.687322,0.61256 -1.308025,0.95706 -1.862112,1.0335 -0.55409,0.0764 -1.013182,-0.11844 -1.377273,-0.58461 -0.364095,-0.46618 -0.461295,-0.98357 -0.291606,-1.55218 0.169688,-0.56862 0.598191,-1.1592 1.285508,-1.77175 0.689138,-0.61418 1.310752,-0.95949 1.864845,-1.03592 0.554087,-0.0764 1.013178,0.11842 1.377276,0.5846 l 0,0 z m 2.324026,3.7167 c -0.242348,-0.2746 -0.557752,-0.34826 -0.946212,-0.22098 -0.388467,0.12727 -0.850086,0.45725 -1.384852,0.9899 -0.533037,0.53093 -0.871838,0.99821 -1.016407,1.40186 -0.144569,0.40364 -0.09568,0.74278 0.146662,1.01738 0.243894,0.27636 0.560074,0.3509 0.948541,0.22363 0.388464,-0.12729 0.849211,-0.45639 1.382248,-0.98731 0.534768,-0.53266 0.874436,-1.00081 1.019011,-1.40446 0.144562,-0.40364 0.0949,-0.74365 -0.148991,-1.02002 l 0,0 z m 0.416705,-0.41505 c 0.389913,0.44183 0.515475,0.95101 0.376662,1.52753 -0.138816,0.57653 -0.53638,1.19164 -1.192681,1.84536 -0.654578,0.65199 -1.257107,1.033 -1.807589,1.14306 -0.550486,0.11004 -1.020689,-0.0559 -1.41061,-0.49769 -0.389925,-0.44183 -0.515481,-0.95101 -0.376666,-1.52753 0.138811,-0.57652 0.535504,-1.19078 1.19008,-1.84277 0.656307,-0.65371 1.259701,-1.03559 1.81019,-1.14564 0.550483,-0.11005 1.020686,0.0558 1.410614,0.49768 l 0,0 z m 1.275236,5.07582 c -0.224866,-0.22507 -0.479334,-0.31829 -0.763429,-0.27962 -0.284104,0.0387 -0.559103,0.20625 -0.825008,0.50278 -0.264261,0.2947 -0.407416,0.5934 -0.429432,0.89612 -0.02204,0.30272 0.07938,0.56662 0.30425,0.79169 0.224854,0.22508 0.479744,0.31783 0.764669,0.27826 0.284916,-0.0396 0.559504,-0.20671 0.823765,-0.50141 0.265906,-0.29653 0.409461,-0.5957 0.430676,-0.8975 0.0212,-0.3018 -0.08062,-0.56524 -0.305491,-0.79032 l 0,0 z m 2.553033,-0.74252 -0.453022,0.5052 c -0.06658,-0.19167 -0.148333,-0.36904 -0.245282,-0.53207 -0.09696,-0.16304 -0.208265,-0.30745 -0.333921,-0.43323 -0.330678,-0.331 -0.694032,-0.46024 -1.090045,-0.38774 -0.396027,0.0725 -0.830492,0.34621 -1.303394,0.8211 0.240346,-0.0616 0.472261,-0.0613 0.695748,8.5e-4 0.223471,0.0622 0.423672,0.18182 0.60059,0.35889 0.372003,0.37238 0.553873,0.79148 0.545591,1.25731 -0.0083,0.46583 -0.205294,0.91381 -0.591014,1.34397 -0.377528,0.421 -0.792801,0.64617 -1.24581,0.67553 -0.453018,0.0294 -0.866364,-0.14299 -1.240031,-0.51701 -0.428229,-0.42864 -0.592694,-0.938 -0.493388,-1.52808 0.0993,-0.59007 0.458354,-1.23014 1.077169,-1.92021 0.581055,-0.64797 1.183222,-1.02559 1.806513,-1.13287 0.62328,-0.10726 1.168882,0.0733 1.636795,0.54164 0.125655,0.12578 0.240234,0.26653 0.34376,0.42225 0.103516,0.15571 0.200093,0.33053 0.289741,0.52447 l 0,0 z m 4.822717,4.26349 -0.437866,0.58371 c -0.125259,-0.27873 -0.259572,-0.52019 -0.402931,-0.72438 -0.143378,-0.20419 -0.300457,-0.37654 -0.471238,-0.51705 -0.296648,-0.24402 -0.572835,-0.36902 -0.828577,-0.37497 -0.255745,-0.006 -0.471042,0.10763 -0.645891,0.34071 -0.146703,0.19557 -0.203983,0.38722 -0.171843,0.57498 0.03214,0.18776 0.174456,0.43501 0.426964,0.74176 l 0.273427,0.34473 c 0.34259,0.41919 0.530131,0.81545 0.562615,1.18877 0.03248,0.37332 -0.08611,0.73973 -0.3558,1.09925 -0.321552,0.42865 -0.696107,0.646 -1.12365,0.65205 -0.427541,0.006 -0.893914,-0.19874 -1.399092,-0.61433 -0.190579,-0.15678 -0.375493,-0.34724 -0.554772,-0.57139 -0.179279,-0.22415 -0.349147,-0.4773 -0.509624,-0.75946 l 0.462329,-0.61631 c 0.118879,0.31822 0.258466,0.59916 0.418741,0.84282 0.160285,0.24366 0.342894,0.44979 0.547848,0.61839 0.31102,0.25587 0.601415,0.38615 0.871173,0.39086 0.269758,0.005 0.497991,-0.1174 0.684693,-0.36629 0.163002,-0.21729 0.22976,-0.43709 0.200287,-0.65938 -0.02949,-0.22232 -0.159694,-0.47797 -0.39061,-0.76697 l -0.278353,-0.34398 c -0.339635,-0.42315 -0.529105,-0.80422 -0.568424,-1.14324 -0.03933,-0.33901 0.0677,-0.67741 0.32109,-1.0152 0.293403,-0.39112 0.649954,-0.59611 1.069685,-0.61498 0.419719,-0.0189 0.849813,0.15287 1.290283,0.51523 0.188765,0.15529 0.367048,0.33231 0.534871,0.53105 0.1678,0.19875 0.326022,0.41995 0.474665,0.66362 l 0,0 z m 2.384497,3.43169 -0.35384,0.53158 c -0.0879,-0.19451 -0.19108,-0.36724 -0.30943,-0.51813 -0.11836,-0.15091 -0.25287,-0.28068 -0.40354,-0.38932 -0.33712,-0.24309 -0.67673,-0.31493 -1.018841,-0.21552 -0.342122,0.0994 -0.653745,0.36032 -0.934901,0.78269 -0.281149,0.42239 -0.40633,0.81772 -0.375529,1.18602 0.03078,0.36831 0.21474,0.674 0.551855,0.91709 0.150675,0.10863 0.314675,0.1941 0.492005,0.25642 0.177323,0.0623 0.368928,0.10212 0.574801,0.11945 l -0.349723,0.52539 c -0.194394,-0.0304 -0.381617,-0.0831 -0.56168,-0.15801 -0.180064,-0.075 -0.35767,-0.17557 -0.532818,-0.30187 -0.476498,-0.34357 -0.746012,-0.78033 -0.80857,-1.31028 -0.06256,-0.52995 0.09131,-1.07308 0.461612,-1.62939 0.375777,-0.56455 0.81305,-0.90637 1.311815,-1.02548 0.498764,-0.11909 0.994864,-7.5e-4 1.488304,0.35506 0.16007,0.11543 0.3044,0.24617 0.43295,0.39222 0.12854,0.14607 0.24039,0.30676 0.33553,0.48208 l 0,0 z m 2.72619,3.50124 -1.26989,2.17042 -0.54222,-0.33893 1.25861,-2.15115 c 0.19913,-0.34033 0.28725,-0.6331 0.26439,-0.87834 -0.0229,-0.24522 -0.15611,-0.44398 -0.39971,-0.59625 -0.29273,-0.18296 -0.58305,-0.22559 -0.87097,-0.12785 -0.28794,0.0977 -0.53459,0.32212 -0.73997,0.67316 l -1.1891,2.03235 -0.54518,-0.34076 2.923,-4.99581 0.54516,0.34077 -1.1459,1.9585 c 0.25615,-0.13513 0.50344,-0.20126 0.74189,-0.19839 0.23845,0.003 0.4726,0.0762 0.70245,0.21984 0.37916,0.237 0.59116,0.54419 0.636,0.92154 0.0448,0.37735 -0.078,0.81432 -0.36856,1.3109 l 0,0 z m 2.83602,0.21522 c -0.30248,-0.16019 -0.60619,-0.15875 -0.91113,0.004 -0.30495,0.16306 -0.56982,0.46745 -0.79461,0.9132 -0.22481,0.44575 -0.31442,0.84297 -0.26885,1.19164 0.0456,0.34869 0.22061,0.60366 0.52513,0.76493 0.30044,0.15911 0.60341,0.15657 0.90892,-0.008 0.3055,-0.16416 0.57009,-0.46801 0.79378,-0.91154 0.22255,-0.44132 0.31109,-0.83769 0.26563,-1.18913 -0.0455,-0.35143 -0.21844,-0.60671 -0.51887,-0.76581 l 0,0 z m 0.26171,-0.51894 c 0.4905,0.25977 0.78853,0.63677 0.89405,1.131 0.10553,0.49424 0.004,1.0474 -0.30472,1.65947 -0.30756,0.60985 -0.68886,1.01416 -1.14389,1.21295 -0.45503,0.19878 -0.9278,0.16828 -1.41831,-0.0915 -0.49255,-0.26086 -0.7908,-0.63868 -0.89475,-1.13348 -0.10395,-0.4948 -0.002,-1.04713 0.30542,-1.65699 0.30868,-0.61207 0.68974,-1.01721 1.1432,-1.21543 0.45345,-0.19821 0.92644,-0.16689 1.419,0.094 l 0,0 z m 3.43662,2.31085 c -0.31288,-0.13788 -0.61677,-0.11492 -0.91167,0.0689 -0.29491,0.18381 -0.54078,0.50536 -0.73761,0.96465 -0.19684,0.45929 -0.26143,0.86073 -0.19379,1.20431 0.0676,0.34358 0.25895,0.58478 0.57394,0.72359 0.31075,0.13696 0.61383,0.11297 0.90923,-0.072 0.2954,-0.18494 0.54103,-0.50592 0.73688,-0.96293 0.19487,-0.45472 0.25845,-0.85525 0.19073,-1.20158 -0.0677,-0.34633 -0.25696,-0.58798 -0.56771,-0.72494 l 0,0 z m 0.22914,-0.5347 c 0.50736,0.2236 0.82947,0.57745 0.96632,1.06156 0.13685,0.48411 0.0701,1.0415 -0.20013,1.67217 -0.26931,0.62839 -0.62539,1.05757 -1.06826,1.28755 -0.44288,0.22996 -0.91799,0.23315 -1.42535,0.01 -0.50947,-0.22454 -0.83186,-0.57918 -0.96716,-1.06397 -0.13531,-0.48478 -0.0683,-1.04136 0.20099,-1.66976 0.27027,-0.63067 0.62607,-1.06066 1.0674,-1.28995 0.44132,-0.22929 0.91672,-0.23167 1.42619,-0.007 l 0,0 z m 2.9749,-0.42062 0.59603,0.22584 -2.04045,5.43369 -0.59604,-0.22585 2.04046,-5.43368 z m 3.42401,3.03419 -0.20297,0.6165 c -0.14019,-0.1502 -0.29475,-0.27892 -0.46368,-0.38616 -0.16893,-0.10724 -0.35222,-0.193 -0.54987,-0.25729 -0.30088,-0.0979 -0.54287,-0.12164 -0.72597,-0.0714 -0.18309,0.0503 -0.3073,0.17463 -0.37263,0.37304 -0.0498,0.15117 -0.035,0.28737 0.0442,0.40858 0.0792,0.12121 0.26853,0.27365 0.56791,0.45731 l 0.1912,0.1171 c 0.39779,0.2392 0.65753,0.47862 0.77923,0.71825 0.12169,0.23962 0.12927,0.52124 0.0227,0.84484 -0.12132,0.36847 -0.35297,0.61608 -0.69496,0.74281 -0.34199,0.12674 -0.75018,0.11295 -1.22455,-0.0413 -0.19766,-0.0643 -0.39675,-0.15191 -0.59727,-0.26289 -0.20052,-0.11098 -0.40576,-0.24637 -0.61573,-0.40619 l 0.22163,-0.67319 c 0.18279,0.19805 0.37259,0.36373 0.56942,0.49703 0.19681,0.13331 0.40173,0.23461 0.61476,0.30389 0.2855,0.0929 0.52242,0.11174 0.71076,0.0566 0.18834,-0.0551 0.314,-0.17834 0.37699,-0.36966 0.0583,-0.17715 0.0476,-0.33101 -0.0322,-0.46156 -0.0798,-0.13055 -0.2931,-0.3006 -0.63987,-0.51014 l -0.19333,-0.12171 c -0.34756,-0.20718 -0.57583,-0.4259 -0.6848,-0.65616 -0.10898,-0.23025 -0.11291,-0.49891 -0.0118,-0.80598 0.12287,-0.37321 0.34072,-0.62137 0.65357,-0.74451 0.31285,-0.12313 0.69548,-0.11113 1.1479,0.036 0.224,0.0729 0.42901,0.15914 0.61499,0.25886 0.186,0.0997 0.35078,0.21215 0.49437,0.33729 l 0,0 z m 0.66806,3.74452 -0.56632,2.14097 -0.62199,-0.15589 1.47398,-5.5723 0.62199,0.15589 -0.16208,0.61274 c 0.19356,-0.2077 0.40493,-0.34497 0.63413,-0.41179 0.22918,-0.0668 0.48163,-0.0657 0.75733,0.003 0.45724,0.11461 0.77727,0.40236 0.96009,0.86325 0.18281,0.46089 0.19031,1.00852 0.0225,1.64288 -0.16781,0.63437 -0.44608,1.11037 -0.83483,1.42801 -0.38875,0.31764 -0.81175,0.41916 -1.26899,0.30456 -0.2757,-0.0691 -0.49732,-0.18678 -0.66485,-0.35304 -0.16754,-0.16625 -0.28454,-0.38581 -0.35098,-0.65868 l 0,0 z m 2.47748,-0.8818 c 0.12902,-0.48778 0.13666,-0.89389 0.0229,-1.21833 -0.11375,-0.32444 -0.33424,-0.52768 -0.66149,-0.6097 -0.32724,-0.082 -0.62115,-0.008 -0.88171,0.22291 -0.26058,0.23063 -0.45538,0.58984 -0.58441,1.07762 -0.12903,0.48778 -0.13667,0.8939 -0.0229,1.21834 0.11374,0.32444 0.33423,0.52768 0.66149,0.6097 0.32724,0.082 0.62114,0.008 0.88172,-0.22291 0.26056,-0.23064 0.45536,-0.58984 0.5844,-1.07763 l 0,0 z m 2.37134,-3.3025 0.62662,0.12169 -1.22009,5.66688 -0.62662,-0.12169 1.22009,-5.66688 z m 2.81561,4.21995 c -0.51131,-0.0722 -0.87609,-0.0599 -1.09434,0.037 -0.21826,0.0969 -0.35279,0.29582 -0.40361,0.59672 -0.0405,0.23973 0.001,0.44038 0.12547,0.60194 0.12413,0.16155 0.31345,0.2603 0.56797,0.29624 0.35079,0.0496 0.65466,-0.0434 0.91158,-0.27888 0.25691,-0.23547 0.42255,-0.57338 0.49692,-1.01373 l 0.0254,-0.15044 -0.6294,-0.0889 z m 1.30933,-0.1006 -0.396,2.34481 -0.63283,-0.0894 0.10536,-0.62383 c -0.1866,0.22913 -0.39768,0.3878 -0.63324,0.476 -0.23557,0.0882 -0.50927,0.11028 -0.82109,0.0662 -0.39438,-0.0557 -0.688,-0.21802 -0.88085,-0.48696 -0.19286,-0.26894 -0.25583,-0.60156 -0.1889,-0.99788 0.0781,-0.46236 0.28198,-0.79047 0.61169,-0.98435 0.3297,-0.19388 0.78232,-0.25019 1.35783,-0.16889 l 0.88734,0.12532 0.0112,-0.0661 c 0.0525,-0.31069 -0.003,-0.56455 -0.16541,-0.76162 -0.16275,-0.19706 -0.41723,-0.32005 -0.76346,-0.36894 -0.22011,-0.0311 -0.43924,-0.0332 -0.65739,-0.006 -0.21816,0.0268 -0.43304,0.0829 -0.64464,0.16818 l 0.10535,-0.62382 c 0.24769,-0.0627 0.48448,-0.10251 0.71035,-0.11945 0.22588,-0.0169 0.442,-0.0108 0.64836,0.0183 0.55716,0.0787 0.94729,0.29159 1.17038,0.63869 0.22309,0.34711 0.28175,0.83379 0.17599,1.46005 l 0,0 z m 2.49517,2.9822 c -0.2339,0.47928 -0.44463,0.78781 -0.63217,0.92555 -0.18755,0.13774 -0.42482,0.1962 -0.7118,0.17537 l -0.51034,-0.037 0.0616,-0.56871 0.37494,0.0272 c 0.1759,0.0128 0.31725,-0.0216 0.42407,-0.10321 0.10681,-0.0816 0.23712,-0.28302 0.39091,-0.60436 l 0.14819,-0.30189 -1.13156,-4.18377 0.67697,0.0491 0.86445,3.32322 1.56574,-3.14681 0.67697,0.0491 -2.19801,4.39617 z m 2.78828,-1.19177 0.73566,0.0169 -0.0606,0.93997 -0.73565,-0.0169 0.0606,-0.93996 z m 3.71725,-2.724 c -0.34473,0.009 -0.62026,0.15829 -0.82662,0.44835 -0.20636,0.29007 -0.3148,0.68303 -0.32532,1.17888 -0.0105,0.49587 0.0808,0.88371 0.27386,1.16355 0.1931,0.27983 0.46318,0.41529 0.81023,0.4064 0.34239,-0.009 0.61678,-0.15881 0.82317,-0.4501 0.20638,-0.2913 0.3148,-0.68365 0.32528,-1.17704 0.0104,-0.49093 -0.0815,-0.87752 -0.27569,-1.15979 -0.19422,-0.28227 -0.46252,-0.41901 -0.80491,-0.41025 l 0,0 z m 0.0122,-0.57727 c 0.559,-0.0143 0.99397,0.16686 1.30491,0.54352 0.31093,0.37668 0.45918,0.90546 0.44473,1.58633 -0.0144,0.67842 -0.18524,1.21475 -0.51253,1.609 -0.3273,0.39426 -0.77045,0.59855 -1.32946,0.61287 -0.56134,0.0144 -0.99687,-0.1674 -1.30662,-0.54532 -0.30974,-0.37794 -0.45741,-0.90612 -0.44302,-1.58453 0.0145,-0.68088 0.18472,-1.21781 0.51082,-1.61081 0.32611,-0.39298 0.76983,-0.59667 1.33117,-0.61106 l 0,0 z m 4.94895,0.44266 c -0.0733,-0.0387 -0.15271,-0.0653 -0.23823,-0.0797 -0.0855,-0.0144 -0.17954,-0.0176 -0.28201,-0.01 -0.36333,0.028 -0.63913,0.17438 -0.82742,0.43918 -0.1883,0.26479 -0.27665,0.63099 -0.26508,1.09861 l 0.0539,2.17812 -0.64629,0.0498 -0.10229,-4.13473 0.64629,-0.0498 0.0159,0.64235 c 0.12887,-0.26145 0.30009,-0.46143 0.51368,-0.59994 0.21358,-0.13852 0.47525,-0.21972 0.78501,-0.24359 0.0443,-0.003 0.0932,-0.004 0.14696,-0.002 0.0537,0.002 0.11333,0.007 0.17885,0.014 l 0.0208,0.69747 z m 3.18988,0.99968 c -0.0342,-0.48999 -0.15652,-0.85753 -0.36701,-1.10263 -0.21049,-0.2451 -0.48883,-0.34564 -0.83504,-0.3016 -0.34387,0.0437 -0.60226,0.21257 -0.77515,0.50644 -0.1729,0.29389 -0.24225,0.68581 -0.20807,1.1758 0.034,0.48753 0.15627,0.85385 0.36676,1.09895 0.21048,0.2451 0.48767,0.34578 0.83155,0.30203 0.3462,-0.044 0.60575,-0.21301 0.77864,-0.50688 0.17289,-0.29388 0.24233,-0.68458 0.20832,-1.17211 l 0,0 z m 0.75255,1.5133 c 0.0489,0.70067 -0.0623,1.24066 -0.33355,1.61997 -0.27124,0.3793 -0.71125,0.60768 -1.32,0.68513 -0.22539,0.0287 -0.43923,0.038 -0.64153,0.0279 -0.2023,-0.0101 -0.40011,-0.0399 -0.59344,-0.0895 l -0.0459,-0.65781 c 0.19572,0.0839 0.38715,0.13982 0.5743,0.16792 0.18715,0.0281 0.37599,0.03 0.56652,0.006 0.42055,-0.0535 0.7273,-0.20932 0.92028,-0.46744 0.19296,-0.25812 0.27312,-0.62116 0.24048,-1.08909 l -0.0233,-0.33441 c -0.11552,0.25939 -0.2725,0.46227 -0.47091,0.60862 -0.19842,0.14636 -0.44169,0.23786 -0.7298,0.27451 -0.47865,0.0609 -0.87776,-0.0824 -1.19736,-0.42974 -0.31959,-0.34739 -0.50152,-0.83835 -0.54579,-1.47288 -0.0444,-0.63697 0.0663,-1.1664 0.33225,-1.58828 0.26593,-0.42189 0.63821,-0.66327 1.11686,-0.72417 0.28811,-0.0367 0.53976,-0.008 0.75492,0.0856 0.21516,0.0937 0.39744,0.25344 0.54679,0.47914 l -0.0436,-0.62473 0.64129,-0.0816 0.25149,3.60505 z"
         id="path8371"
         inkscape:connector-curvature="0" /><path
         sodipodi:type="arc"
         style="fill:none;stroke:#000000;stroke-width:0.5;stroke-miterlimit:4;stroke-opacity:1;stroke-dasharray:none"
         id="path8373"
         sodipodi:cx="54.010136"
         sodipodi:cy="480.26108"
         sodipodi:rx="3.8941479"
         sodipodi:ry="3.8941479"
         d="m 57.904284,480.26108 c 0,2.15068 -1.74347,3.89415 -3.894148,3.89415 -2.150679,0 -3.894148,-1.74347 -3.894148,-3.89415 0,-2.15068 1.743469,-3.89415 3.894148,-3.89415 2.150678,0 3.894148,1.74347 3.894148,3.89415 z"
         transform="matrix(0.8774338,0,-0.03481474,0.8774338,47.745765,47.012006)" /></g></g></svg>